<svg xmlns="http://www.w3.org/2000/svg" xmlns:xlink="http://www.w3.org/1999/xlink" width="500" zoomAndPan="magnify" viewBox="0 0 375 374.999991" height="500" preserveAspectRatio="xMidYMid meet" version="1.0"><defs><clipPath id="29d1a2ea5f"><path d="M 33.75 0 L 341.25 0 C 350.199219 0 358.785156 3.554688 365.113281 9.886719 C 371.445312 16.214844 375 24.800781 375 33.75 L 375 341.25 C 375 350.199219 371.445312 358.785156 365.113281 365.113281 C 358.785156 371.445312 350.199219 375 341.25 375 L 33.75 375 C 15.109375 375 0 359.890625 0 341.25 L 0 33.75 C 0 15.109375 15.109375 0 33.75 0 Z M 33.75 0 " clip-rule="nonzero"/></clipPath><clipPath id="81d913f17a"><path d="M 201 181 L 338 181 L 338 344 L 201 344 Z M 201 181 " clip-rule="nonzero"/></clipPath><clipPath id="c441d684e4"><path d="M 201.035156 194.214844 L 312.042969 175.960938 L 337.570312 331.203125 L 226.558594 349.453125 Z M 201.035156 194.214844 " clip-rule="nonzero"/></clipPath><clipPath id="a21e11233d"><path d="M 279.472656 181.316406 L 201.035156 194.214844 L 259.0625 343.683594 L 337.5 330.785156 Z M 279.472656 181.316406 " clip-rule="nonzero"/></clipPath><clipPath id="9115fb9cb7"><path d="M 201 181 L 338 181 L 338 344 L 201 344 Z M 201 181 " clip-rule="nonzero"/></clipPath><clipPath id="8046428686"><path d="M 201.035156 194.214844 L 312.042969 175.960938 L 337.476562 330.636719 L 226.46875 348.886719 Z M 201.035156 194.214844 " clip-rule="nonzero"/></clipPath><clipPath id="75ae824059"><path d="M 201.039062 194.214844 L 312.996094 175.804688 L 338.765625 332.546875 L 226.808594 350.953125 Z M 201.039062 194.214844 " clip-rule="nonzero"/></clipPath><clipPath id="4672dd9e98"><path d="M 279.472656 181.316406 L 201.039062 194.214844 L 259.0625 343.671875 L 337.496094 330.773438 Z M 279.472656 181.316406 " clip-rule="nonzero"/></clipPath><clipPath id="76b6f999d8"><path d="M 37 33 L 237 33 L 237 319 L 37 319 Z M 37 33 " clip-rule="nonzero"/></clipPath><clipPath id="17a4533064"><path d="M 89.070312 25.964844 L 236.886719 53.992188 L 185.207031 326.527344 L 37.390625 298.5 Z M 89.070312 25.964844 " clip-rule="nonzero"/></clipPath><clipPath id="acd8563385"><path d="M 128.195312 33.382812 L 236.886719 53.992188 L 146.191406 318.542969 L 37.5 297.933594 Z M 128.195312 33.382812 " clip-rule="nonzero"/></clipPath><clipPath id="02c893d12e"><path d="M 37 33 L 237 33 L 237 319 L 37 319 Z M 37 33 " clip-rule="nonzero"/></clipPath><clipPath id="011d95b60a"><path d="M 89.070312 25.964844 L 237.183594 54.046875 L 185.621094 325.953125 L 37.511719 297.867188 Z M 89.070312 25.964844 " clip-rule="nonzero"/></clipPath><clipPath id="7a6fefedd8"><path d="M 89.070312 25.964844 L 238.222656 54.246094 L 186.292969 328.101562 L 37.140625 299.816406 Z M 89.070312 25.964844 " clip-rule="nonzero"/></clipPath><clipPath id="219fbca663"><path d="M 128.195312 33.382812 L 236.882812 53.992188 L 146.191406 318.535156 L 37.5 297.925781 Z M 128.195312 33.382812 " clip-rule="nonzero"/></clipPath></defs><g clip-path="url(#29d1a2ea5f)"><rect x="-37.5" width="450" fill="#ff5757" y="-37.499999" height="449.999989" fill-opacity="1"/></g><g clip-path="url(#81d913f17a)"><g clip-path="url(#c441d684e4)"><g clip-path="url(#a21e11233d)"><path fill="#cec7bf" d="M 201.035156 194.214844 L 312.042969 175.960938 L 337.5 330.769531 L 226.488281 349.019531 Z M 201.035156 194.214844 " fill-opacity="1" fill-rule="nonzero"/></g></g></g><g clip-path="url(#9115fb9cb7)"><g clip-path="url(#8046428686)"><g clip-path="url(#75ae824059)"><g clip-path="url(#4672dd9e98)"><path stroke-linecap="butt" transform="matrix(0.740063, -0.121682, 0.121682, 0.740063, 201.039102, 194.214129)" fill="none" stroke-linejoin="miter" d="M 105.982594 -0.00208418 L -0.000206223 0.000932096 L 44.008273 209.188596 L 149.991073 209.18558 Z M 105.982594 -0.00208418 " stroke="#ffffff" stroke-width="188" stroke-opacity="1" stroke-miterlimit="4"/></g></g></g></g><g clip-path="url(#76b6f999d8)"><g clip-path="url(#17a4533064)"><g clip-path="url(#acd8563385)"><path fill="#a6a6a6" d="M 89.070312 25.964844 L 236.886719 53.992188 L 185.316406 325.949219 L 37.5 297.921875 Z M 89.070312 25.964844 " fill-opacity="1" fill-rule="nonzero"/></g></g></g><g clip-path="url(#02c893d12e)"><g clip-path="url(#011d95b60a)"><g clip-path="url(#7a6fefedd8)"><g clip-path="url(#219fbca663)"><path stroke-linecap="butt" transform="matrix(0.736869, 0.139728, -0.139728, 0.736869, 89.071427, 25.963013)" fill="none" stroke-linejoin="miter" d="M 53.095 0.00124556 L 200.593972 0.000668746 L 147.503281 369.077462 L -0.000807731 369.07901 Z M 53.095 0.00124556 " stroke="#ffffff" stroke-width="20" stroke-opacity="1" stroke-miterlimit="4"/></g></g></g></g></svg>