<svg xmlns="http://www.w3.org/2000/svg" xmlns:xlink="http://www.w3.org/1999/xlink" width="500" zoomAndPan="magnify" viewBox="0 0 375 374.999991" height="500" preserveAspectRatio="xMidYMid meet" version="1.0"><defs><clipPath id="4729c9eaa9"><path d="M 33.75 0 L 341.25 0 C 350.199219 0 358.785156 3.554688 365.113281 9.886719 C 371.445312 16.214844 375 24.800781 375 33.75 L 375 341.25 C 375 350.199219 371.445312 358.785156 365.113281 365.113281 C 358.785156 371.445312 350.199219 375 341.25 375 L 33.75 375 C 15.109375 375 0 359.890625 0 341.25 L 0 33.75 C 0 15.109375 15.109375 0 33.75 0 Z M 33.75 0 " clip-rule="nonzero"/></clipPath><clipPath id="15f6378526"><path d="M 103.726562 84.699219 L 310 84.699219 L 310 277.550781 L 103.726562 277.550781 Z M 103.726562 84.699219 " clip-rule="nonzero"/></clipPath><clipPath id="4df99b3e8c"><path d="M 111.976562 84.699219 L 301.648438 84.699219 C 303.835938 84.699219 305.933594 85.570312 307.484375 87.117188 C 309.03125 88.664062 309.898438 90.761719 309.898438 92.949219 L 309.898438 269.300781 C 309.898438 271.488281 309.03125 273.585938 307.484375 275.132812 C 305.933594 276.679688 303.835938 277.550781 301.648438 277.550781 L 111.976562 277.550781 C 109.789062 277.550781 107.691406 276.679688 106.140625 275.132812 C 104.59375 273.585938 103.726562 271.488281 103.726562 269.300781 L 103.726562 92.949219 C 103.726562 90.761719 104.59375 88.664062 106.140625 87.117188 C 107.691406 85.570312 109.789062 84.699219 111.976562 84.699219 Z M 111.976562 84.699219 " clip-rule="nonzero"/></clipPath><clipPath id="2eeb22e091"><path d="M 54.9375 129.914062 L 261.347656 129.914062 L 261.347656 322.765625 L 54.9375 322.765625 Z M 54.9375 129.914062 " clip-rule="nonzero"/></clipPath><clipPath id="dc8a8507b8"><path d="M 63.1875 129.914062 L 252.859375 129.914062 C 255.046875 129.914062 257.148438 130.785156 258.695312 132.332031 C 260.242188 133.878906 261.109375 135.976562 261.109375 138.164062 L 261.109375 314.515625 C 261.109375 316.703125 260.242188 318.800781 258.695312 320.347656 C 257.148438 321.894531 255.046875 322.765625 252.859375 322.765625 L 63.1875 322.765625 C 61 322.765625 58.902344 321.894531 57.355469 320.347656 C 55.808594 318.800781 54.9375 316.703125 54.9375 314.515625 L 54.9375 138.164062 C 54.9375 135.976562 55.808594 133.878906 57.355469 132.332031 C 58.902344 130.785156 61 129.914062 63.1875 129.914062 Z M 63.1875 129.914062 " clip-rule="nonzero"/></clipPath></defs><g clip-path="url(#4729c9eaa9)"><rect x="-37.5" width="450" fill="#ff5757" y="-37.499999" height="449.999989" fill-opacity="1"/></g><g clip-path="url(#15f6378526)"><g clip-path="url(#4df99b3e8c)"><path fill="#a6a6a6" d="M 103.726562 84.699219 L 310.136719 84.699219 L 310.136719 277.550781 L 103.726562 277.550781 Z M 103.726562 84.699219 " fill-opacity="1" fill-rule="nonzero"/></g></g><g clip-path="url(#2eeb22e091)"><g clip-path="url(#dc8a8507b8)"><path fill="#cec7bf" d="M 54.9375 129.914062 L 261.347656 129.914062 L 261.347656 322.765625 L 54.9375 322.765625 Z M 54.9375 129.914062 " fill-opacity="1" fill-rule="nonzero"/></g></g><path fill="#f1ece4" d="M 214.9375 169.421875 C 200.886719 155.378906 178.113281 155.378906 164.066406 169.421875 L 143.996094 189.488281 C 145.582031 189.3125 147.1875 189.238281 148.804688 189.238281 C 153.882812 189.238281 158.820312 190.046875 163.5 191.601562 L 174.871094 180.234375 C 178.777344 176.320312 183.972656 174.171875 189.496094 174.171875 C 195.023438 174.171875 200.21875 176.320312 204.125 180.234375 C 208.03125 184.136719 210.179688 189.320312 210.179688 194.855469 C 210.179688 200.378906 208.03125 205.574219 204.125 209.476562 L 181.871094 231.730469 C 177.964844 235.640625 172.769531 237.789062 167.246094 237.789062 C 161.710938 237.789062 156.523438 235.640625 152.613281 231.730469 C 150.714844 229.835938 149.230469 227.628906 148.210938 225.226562 C 145.675781 225.367188 143.304688 226.417969 141.492188 228.230469 L 135.566406 234.164062 C 137.1875 237.171875 139.269531 240.003906 141.804688 242.546875 C 155.851562 256.59375 178.628906 256.59375 192.679688 242.546875 L 214.9375 220.285156 C 228.980469 206.242188 228.980469 183.46875 214.9375 169.421875 Z M 214.9375 169.421875 " fill-opacity="1" fill-rule="nonzero"/><path fill="#f1ece4" d="M 167.484375 263.417969 C 162.394531 263.417969 157.40625 262.597656 152.625 260.972656 L 141.171875 272.425781 C 137.269531 276.335938 132.074219 278.484375 126.550781 278.484375 C 121.023438 278.484375 115.839844 276.335938 111.925781 272.425781 C 108.015625 268.523438 105.867188 263.328125 105.867188 257.804688 C 105.867188 252.28125 108.015625 247.085938 111.925781 243.175781 L 134.179688 220.921875 C 138.09375 217.019531 143.277344 214.871094 148.804688 214.871094 C 154.335938 214.871094 159.523438 217.019531 163.429688 220.921875 C 165.332031 222.824219 166.816406 225.027344 167.839844 227.433594 C 170.386719 227.300781 172.761719 226.238281 174.570312 224.429688 L 180.492188 218.5 C 178.871094 215.488281 176.78125 212.65625 174.242188 210.109375 C 160.199219 196.066406 137.417969 196.066406 123.371094 210.109375 L 101.117188 232.375 C 87.066406 246.417969 87.066406 269.191406 101.117188 283.246094 C 115.164062 297.289062 137.9375 297.289062 151.980469 283.246094 L 172.019531 263.207031 C 170.527344 263.34375 169.015625 263.417969 167.492188 263.417969 Z M 167.484375 263.417969 " fill-opacity="1" fill-rule="nonzero"/></svg>