<svg xmlns="http://www.w3.org/2000/svg" xmlns:xlink="http://www.w3.org/1999/xlink" width="500" zoomAndPan="magnify" viewBox="0 0 375 374.999991" height="500" preserveAspectRatio="xMidYMid meet" version="1.0"><defs><clipPath id="6113752976"><path d="M 33.75 0 L 341.25 0 C 350.199219 0 358.785156 3.554688 365.113281 9.886719 C 371.445312 16.214844 375 24.800781 375 33.75 L 375 341.25 C 375 350.199219 371.445312 358.785156 365.113281 365.113281 C 358.785156 371.445312 350.199219 375 341.25 375 L 33.75 375 C 15.109375 375 0 359.890625 0 341.25 L 0 33.75 C 0 15.109375 15.109375 0 33.75 0 Z M 33.75 0 " clip-rule="nonzero"/></clipPath><clipPath id="bc33dc7a5e"><path d="M 39 44.4375 L 337.5 44.4375 L 337.5 318 L 39 318 Z M 39 44.4375 " clip-rule="nonzero"/></clipPath></defs><g clip-path="url(#6113752976)"><rect x="-37.5" width="450" fill="#ff5757" y="-37.499999" height="449.999989" fill-opacity="1"/></g><g clip-path="url(#bc33dc7a5e)"><path fill="#ffffff" d="M 168.613281 171.53125 C 170.261719 169.253906 173.445312 168.75 175.71875 170.402344 C 177.996094 172.050781 178.5 175.234375 176.851562 177.507812 L 137.957031 231.105469 C 137 232.425781 135.46875 233.207031 133.839844 233.207031 L 86.390625 233.207031 C 79.246094 233.207031 74.8125 238.039062 74.722656 244.515625 C 74.632812 250.984375 78.894531 255.683594 86.390625 255.683594 L 142.59375 255.699219 C 144.59375 255.839844 149.421875 251.550781 156.753906 242.542969 C 157.511719 241.613281 158.035156 240.960938 159.324219 239.355469 C 165.097656 232.132812 166.277344 230.691406 168.757812 227.96875 C 170.648438 225.890625 173.867188 225.742188 175.945312 227.632812 C 178.023438 229.527344 178.175781 232.746094 176.28125 234.824219 C 174.015625 237.308594 172.867188 238.714844 167.273438 245.710938 C 165.96875 247.339844 165.425781 248.011719 164.648438 248.96875 C 154.703125 261.183594 148.890625 266.347656 142.234375 265.863281 L 86.390625 265.863281 C 73.019531 265.863281 64.375 256.339844 64.542969 244.375 C 64.710938 232.546875 73.4375 223.027344 86.390625 223.027344 L 131.242188 223.027344 Z M 241.171875 251.152344 C 244.570312 244.644531 243.441406 238.46875 238.332031 231.894531 L 207.90625 195.589844 C 206.378906 193.761719 206.320312 191.121094 207.765625 189.230469 L 235.566406 152.847656 C 239.4375 147.332031 246 147.539062 249.835938 152.726562 L 267.609375 176.164062 C 271.734375 181.554688 272.007812 181.714844 276.851562 181.714844 L 321.007812 182.054688 C 324.792969 182.054688 326.894531 179.703125 326.878906 176.273438 C 326.863281 172.832031 324.726562 170.449219 321.007812 170.449219 L 293.355469 170.449219 C 285.21875 170.449219 280.789062 168.925781 276.277344 162.789062 L 255.441406 131.679688 C 247.953125 121.816406 236.40625 116.171875 225.988281 116.171875 L 168.09375 116.167969 C 163.636719 116.351562 160.9375 117.457031 158.992188 119.660156 L 132.054688 155.636719 C 129.871094 158.257812 130.523438 161.523438 133.394531 163.625 C 136.480469 165.878906 140.226562 165.359375 143.433594 161.074219 L 166.421875 130.648438 C 167.382812 129.375 168.886719 128.628906 170.484375 128.628906 L 190.148438 128.628906 C 200.0625 128.851562 205.367188 138.824219 198.320312 147.390625 L 176.015625 178.476562 C 171.269531 189.019531 172.972656 197.90625 178.769531 205.5 C 180.855469 208.238281 182.921875 210.109375 184.777344 211.492188 L 217.632812 243.46875 C 219.152344 244.945312 219.597656 247.207031 218.753906 249.148438 L 200.585938 290.945312 C 193.640625 306.351562 211.082031 314.496094 219.585938 298.863281 Z M 246.25 225.5 C 253.738281 235.128906 255.625 245.460938 250.320312 255.605469 L 228.789062 303.222656 L 228.636719 303.527344 C 214.074219 330.714844 178.855469 314.386719 191.277344 286.824219 L 208.019531 248.308594 L 178.300781 219.300781 C 176.28125 217.882812 173.46875 215.335938 170.675781 211.675781 C 162.765625 201.308594 160.316406 188.546875 167.230469 173.429688 L 190.246094 141.207031 C 191.878906 139.210938 191.683594 138.847656 190.035156 138.808594 L 173.015625 138.808594 L 151.570312 167.191406 C 145.003906 175.964844 134.933594 177.363281 127.382812 171.835938 C 120.035156 166.460938 118.046875 156.554688 124.066406 149.328125 L 151.085938 113.261719 C 155.269531 108.476562 160.609375 106.289062 167.882812 105.992188 L 225.988281 105.992188 C 239.566406 105.992188 254.121094 113.105469 263.722656 125.765625 L 284.601562 156.9375 C 286.691406 159.773438 288.128906 160.269531 293.355469 160.269531 L 321.007812 160.269531 C 330.609375 160.269531 337.019531 167.429688 337.058594 176.230469 C 337.09375 185.066406 330.695312 192.234375 320.96875 192.234375 L 276.8125 191.894531 C 268.523438 191.894531 265.4375 190.074219 259.511719 182.332031 L 242.742188 160.214844 L 218.324219 192.171875 Z M 264.21875 54.617188 C 252.414062 54.617188 242.855469 64.179688 242.855469 75.980469 C 242.855469 87.777344 252.414062 97.339844 264.21875 97.339844 C 276.007812 97.339844 285.566406 87.777344 285.566406 75.980469 C 285.566406 64.183594 276.007812 54.617188 264.21875 54.617188 Z M 264.21875 44.4375 C 281.632812 44.4375 295.746094 58.5625 295.746094 75.980469 C 295.746094 93.394531 281.632812 107.519531 264.21875 107.519531 C 246.792969 107.519531 232.675781 93.398438 232.675781 75.980469 C 232.675781 58.558594 246.792969 44.4375 264.21875 44.4375 Z M 86.589844 96.847656 L 134.289062 96.847656 C 141.078125 96.847656 141.078125 107.027344 134.289062 107.027344 L 86.589844 107.027344 C 79.804688 107.027344 79.804688 96.847656 86.589844 96.847656 Z M 44.742188 139.882812 L 104.898438 139.882812 C 111.683594 139.882812 111.683594 150.0625 104.898438 150.0625 L 44.742188 150.0625 C 37.957031 150.0625 37.957031 139.882812 44.742188 139.882812 Z M 65.820312 182.238281 L 112.84375 182.238281 C 119.628906 182.238281 119.628906 192.417969 112.84375 192.417969 L 65.820312 192.417969 C 59.035156 192.417969 59.035156 182.238281 65.820312 182.238281 Z M 86.589844 107.027344 L 86.589844 96.847656 L 134.289062 96.847656 L 134.289062 107.027344 Z M 44.742188 150.0625 L 44.742188 139.882812 L 104.898438 139.882812 L 104.898438 150.0625 Z M 44.742188 150.0625 " fill-opacity="1" fill-rule="nonzero"/></g></svg>