<svg xmlns="http://www.w3.org/2000/svg" width="500" viewBox="0 0 375 375" height="500" version="1.0"><defs><clipPath id="a"><path d="M173 101h24v24h-24Zm0 0"/></clipPath><clipPath id="b"><path d="m185.82 97.09 15.633 16.933-16.933 15.63-15.633-16.934Zm0 0"/></clipPath><clipPath id="c"><path d="M193.637 105.555c-4.317-4.676-11.606-4.97-16.282-.653-4.675 4.317-4.968 11.61-.652 16.285 4.317 4.676 11.606 4.965 16.281.649 4.676-4.316 4.97-11.606.653-16.281m0 0"/></clipPath><clipPath id="d"><path d="M219 81h50v51h-50Zm0 0"/></clipPath><clipPath id="e"><path d="m273.914 88.125-11.652 48.11-48.114-11.65 11.653-48.112Zm0 0"/></clipPath><clipPath id="f"><path d="M268.086 112.18c3.219-13.285-4.945-26.664-18.23-29.883-13.286-3.215-26.665 4.945-29.88 18.23-3.218 13.285 4.946 26.664 18.231 29.883 13.285 3.215 26.664-4.945 29.879-18.23m0 0"/></clipPath><clipPath id="g"><path d="M219 81h50v51h-50Zm0 0"/></clipPath><clipPath id="h"><path d="m273.914 88.125-11.652 48.11-48.11-11.653 11.653-48.11Zm0 0"/></clipPath><clipPath id="i"><path d="m273.914 88.125-11.652 48.11-48.11-11.653 11.653-48.11Zm0 0"/></clipPath><clipPath id="j"><path d="M268.086 112.18c3.219-13.285-4.941-26.664-18.227-29.883-13.285-3.215-26.664 4.945-29.882 18.23-3.215 13.285 4.945 26.664 18.23 29.88 13.285 3.218 26.664-4.942 29.879-18.227m0 0"/></clipPath><clipPath id="k"><path d="M236 98h17v17h-17Zm0 0"/></clipPath><clipPath id="l"><path d="m250.23 97.195 3.243 15.434-15.434 3.242-3.242-15.433Zm0 0"/></clipPath><clipPath id="m"><path d="M251.852 104.914a7.885 7.885 0 1 0-15.434 3.239 7.885 7.885 0 0 0 15.434-3.239m0 0"/></clipPath><clipPath id="n"><path d="M249 225h38v37h-38Zm0 0"/></clipPath><clipPath id="o"><path d="m279.113 266.867-34.375-11.972 11.973-34.372 34.371 11.973Zm0 0"/></clipPath><clipPath id="p"><path d="M261.926 260.883c9.492 3.305 19.867-1.711 23.172-11.203 3.304-9.489-1.707-19.864-11.2-23.172-9.492-3.305-19.867 1.71-23.171 11.203-3.309 9.492 1.707 19.863 11.199 23.172m0 0"/></clipPath><clipPath id="q"><path d="M273 178h51v51h-51Zm0 0"/></clipPath><clipPath id="r"><path d="m328.488 220.996-47.906 12.461-12.46-47.906 47.905-12.465Zm0 0"/></clipPath><clipPath id="s"><path d="M304.535 227.227c13.23-3.442 21.164-16.957 17.723-30.188-3.442-13.226-16.957-21.16-30.184-17.719-13.23 3.442-21.164 16.953-17.722 30.184 3.441 13.23 16.953 21.164 30.183 17.723m0 0"/></clipPath><clipPath id="t"><path d="M273 178h51v51h-51Zm0 0"/></clipPath><clipPath id="u"><path d="m328.488 220.996-47.906 12.461-12.46-47.906 47.905-12.461Zm0 0"/></clipPath><clipPath id="v"><path d="m328.488 220.996-47.906 12.461-12.46-47.906 47.905-12.461Zm0 0"/></clipPath><clipPath id="w"><path d="M304.535 227.227c13.23-3.442 21.164-16.957 17.723-30.184-3.442-13.23-16.953-21.164-30.184-17.723-13.23 3.442-21.164 16.953-17.722 30.184 3.441 13.23 16.957 21.164 30.183 17.723m0 0"/></clipPath><clipPath id="x"><path d="M234 166h17v17h-17Zm0 0"/></clipPath><clipPath id="y"><path d="m253.867 174.559-11.496 11.496-11.496-11.496 11.496-11.496Zm0 0"/></clipPath><clipPath id="z"><path d="M248.121 180.305c3.172-3.172 3.172-8.32 0-11.496-3.176-3.172-8.324-3.172-11.496 0a8.126 8.126 0 0 0 0 11.496c3.172 3.175 8.32 3.175 11.496 0m0 0"/></clipPath><clipPath id="A"><path d="M234 166h17v17h-17Zm0 0"/></clipPath><clipPath id="B"><path d="M253.867 174.559 242.2 186.227l-11.664-11.668L242.2 162.89Zm0 0"/></clipPath><clipPath id="C"><path d="m253.867 174.559-11.492 11.492-11.492-11.492 11.492-11.493Zm0 0"/></clipPath><clipPath id="D"><path d="M248.121 180.305a8.12 8.12 0 0 0 0-11.493 8.12 8.12 0 0 0-11.492 0 8.12 8.12 0 0 0 0 11.493 8.12 8.12 0 0 0 11.492 0m0 0"/></clipPath><clipPath id="E"><path d="M160.746 170.371h56.25v56.25h-56.25Zm0 0"/></clipPath><clipPath id="F"><path d="M188.871 170.371c-15.531 0-28.125 12.594-28.125 28.125 0 15.535 12.594 28.125 28.125 28.125 15.535 0 28.125-12.59 28.125-28.125 0-15.531-12.59-28.125-28.125-28.125m0 0"/></clipPath><clipPath id="G"><path d="M173.219 192H183v15h-9.781Zm0 0"/></clipPath><clipPath id="H"><path d="M196 191.29h8.719V204H196Zm0 0"/></clipPath><clipPath id="I"><path d="M185 208h4v3.54h-4Zm0 0"/></clipPath><clipPath id="J"><path d="M124.48 170.371h16.258v16.258H124.48Zm0 0"/></clipPath><clipPath id="K"><path d="M132.61 170.371a8.13 8.13 0 0 0-8.13 8.129 8.13 8.13 0 0 0 8.13 8.129 8.125 8.125 0 0 0 8.128-8.129 8.13 8.13 0 0 0-8.129-8.129m0 0"/></clipPath><clipPath id="L"><path d="M124.48 170.371h16.254v16.254H124.48Zm0 0"/></clipPath><clipPath id="M"><path d="M132.61 170.371a8.127 8.127 0 1 0 0 16.254 8.124 8.124 0 0 0 8.124-8.125 8.127 8.127 0 0 0-8.125-8.129m0 0"/></clipPath><clipPath id="N"><path d="M94 104h43v43H94Zm0 0"/></clipPath><clipPath id="O"><path d="m105.297 97.086 38.332 18.266-18.262 38.332-38.332-18.266Zm0 0"/></clipPath><clipPath id="P"><path d="M124.46 106.219c-10.581-5.043-23.253-.551-28.296 10.035s-.547 23.254 10.035 28.297c10.586 5.043 23.254.55 28.297-10.035s.55-23.254-10.035-28.297m0 0"/></clipPath><clipPath id="Q"><path d="M94 104h43v43H94Zm0 0"/></clipPath><clipPath id="R"><path d="m105.297 97.086 38.594 18.387-18.387 38.593L86.91 135.68Zm0 0"/></clipPath><clipPath id="S"><path d="m105.297 97.086 38.328 18.262-18.262 38.332-38.328-18.262Zm0 0"/></clipPath><clipPath id="T"><path d="M124.46 106.219c-10.581-5.043-23.253-.551-28.292 10.035-5.043 10.582-.55 23.25 10.031 28.293 10.586 5.043 23.254.55 28.297-10.035 5.043-10.582.55-23.25-10.035-28.293m0 0"/></clipPath><clipPath id="U"><path d="M108.527 118.582h13.61v13.606h-13.61Zm0 0"/></clipPath><clipPath id="V"><path d="M115.332 118.582a6.8 6.8 0 0 0-6.805 6.8 6.805 6.805 0 0 0 13.61 0c0-3.757-3.047-6.8-6.805-6.8m0 0"/></clipPath><clipPath id="W"><path d="M42.191 61.43h23.043v23.047H42.191Zm0 0"/></clipPath><clipPath id="X"><path d="M53.71 61.43c-6.362 0-11.519 5.16-11.519 11.523s5.157 11.524 11.52 11.524c6.367 0 11.523-5.16 11.523-11.524S60.078 61.43 53.711 61.43m0 0"/></clipPath><clipPath id="Y"><path d="M25 106h39v39H25Zm0 0"/></clipPath><clipPath id="Z"><path d="m28.133 104.805 37.101 4.058-4.058 37.102-37.106-4.059Zm0 0"/></clipPath><clipPath id="aa"><path d="M46.684 106.832c-10.246-1.121-19.461 6.277-20.582 16.523-1.122 10.247 6.277 19.457 16.523 20.582 10.242 1.122 19.457-6.277 20.578-16.523s-6.273-19.457-16.52-20.582m0 0"/></clipPath><clipPath id="ab"><path d="M25 106h39v39H25Zm0 0"/></clipPath><clipPath id="ac"><path d="m28.133 104.805 37.277 4.078-4.078 37.277-37.277-4.078Zm0 0"/></clipPath><clipPath id="ad"><path d="m28.133 104.805 37.09 4.058-4.059 37.09-37.09-4.058Zm0 0"/></clipPath><clipPath id="ae"><path d="M46.68 106.832c-10.242-1.121-19.457 6.273-20.578 16.516-1.122 10.242 6.273 19.457 16.515 20.578s19.457-6.274 20.578-16.516-6.273-19.457-16.515-20.578m0 0"/></clipPath><clipPath id="af"><path d="M314 74h32v31h-32Zm0 0"/></clipPath><clipPath id="ag"><path d="m350.926 84.438-16.2 25.765-25.765-16.195 16.195-25.766Zm0 0"/></clipPath><clipPath id="ah"><path d="M342.828 97.32c4.473-7.113 2.328-16.507-4.789-20.98-7.113-4.473-16.508-2.332-20.98 4.785-4.473 7.113-2.332 16.508 4.785 20.98s16.511 2.332 20.984-4.785m0 0"/></clipPath><clipPath id="ai"><path d="M273 99h38v38h-38Zm0 0"/></clipPath><clipPath id="aj"><path d="m317.902 111.828-19.859 31.602-31.602-19.864 19.864-31.601Zm0 0"/></clipPath><clipPath id="ak"><path d="M307.973 127.629c5.484-8.727 2.859-20.246-5.868-25.73s-20.246-2.86-25.73 5.867-2.86 20.246 5.867 25.73 20.246 2.86 25.73-5.867m0 0"/></clipPath><clipPath id="al"><path d="M286 107.988h12V120h-12Zm0 0"/></clipPath><clipPath id="am"><path d="M282.164 119h20.25v10.738h-20.25Zm0 0"/></clipPath><clipPath id="an"><path d="M104 226h38v38h-38Zm0 0"/></clipPath><clipPath id="ao"><path d="m96.906 249.941 21.016-30.847 30.844 21.015-21.012 30.844Zm0 0"/></clipPath><clipPath id="ap"><path d="M107.414 234.516c-5.8 8.52-3.602 20.129 4.914 25.93 8.52 5.804 20.129 3.6 25.93-4.915 5.804-8.52 3.605-20.129-4.914-25.93-8.52-5.804-20.125-3.601-25.93 4.915m0 0"/></clipPath><clipPath id="aq"><path d="M117 232.672h12V245h-12Zm0 0"/></clipPath><clipPath id="ar"><path d="M112.797 244H133v10.422h-20.203Zm0 0"/></clipPath><clipPath id="as"><path d="M46 255h24v24H46Zm0 0"/></clipPath><clipPath id="at"><path d="m42.191 268.723 14.672-17.774 17.77 14.672-14.668 17.774Zm0 0"/></clipPath><clipPath id="au"><path d="M49.527 259.836c-4.05 4.906-3.359 12.172 1.551 16.223 4.906 4.05 12.168 3.355 16.219-1.551 4.055-4.91 3.36-12.172-1.55-16.223-4.907-4.05-12.169-3.355-16.22 1.55m0 0"/></clipPath><clipPath id="av"><path d="M177 274h24v25h-24Zm0 0"/></clipPath><clipPath id="aw"><path d="m188.383 302.781-15.18-17.34 17.34-15.18 15.18 17.34Zm0 0"/></clipPath><clipPath id="ax"><path d="M180.793 294.11c4.191 4.788 11.473 5.273 16.262 1.081 4.785-4.191 5.27-11.472 1.078-16.261-4.192-4.79-11.473-5.27-16.258-1.078-4.79 4.191-5.273 11.468-1.082 16.257m0 0"/></clipPath><clipPath id="ay"><path d="M77 219h17v18H77Zm0 0"/></clipPath><clipPath id="az"><path d="m74.633 230.605 8.66-13.726 13.73 8.66-8.664 13.73Zm0 0"/></clipPath><clipPath id="aA"><path d="M78.965 223.742a8.115 8.115 0 0 0 2.531 11.196c3.793 2.39 8.805 1.257 11.195-2.536a8.114 8.114 0 0 0-2.53-11.191 8.115 8.115 0 0 0-11.196 2.531m0 0"/></clipPath><clipPath id="aB"><path d="M258 294h17v17h-17Zm0 0"/></clipPath><clipPath id="aC"><path d="m270.438 313.566-14.77-6.8 6.8-14.766 14.766 6.797Zm0 0"/></clipPath><clipPath id="aD"><path d="M263.055 310.168a8.13 8.13 0 0 0 10.78-3.988 8.124 8.124 0 0 0-3.983-10.782 8.124 8.124 0 0 0-10.782 3.985 8.13 8.13 0 0 0 3.985 10.785m0 0"/></clipPath><clipPath id="aE"><path d="M258 294h17v17h-17Zm0 0"/></clipPath><clipPath id="aF"><path d="m270.438 313.566-14.989-6.902 6.899-14.988 14.988 6.902Zm0 0"/></clipPath><clipPath id="aG"><path d="m270.438 313.566-14.766-6.796 6.797-14.766 14.765 6.797Zm0 0"/></clipPath><clipPath id="aH"><path d="M263.055 310.168c4.078 1.875 8.906.094 10.78-3.984 1.876-4.079.095-8.907-3.983-10.782a8.13 8.13 0 0 0-10.782 3.985 8.13 8.13 0 0 0 3.985 10.781m0 0"/></clipPath><clipPath id="aI"><path d="M314 270h34v34h-34Zm0 0"/></clipPath><clipPath id="aJ"><path d="m350.914 275.023-7.848 32.414-32.418-7.851 7.852-32.414Zm0 0"/></clipPath><clipPath id="aK"><path d="M346.988 291.23c2.168-8.953-3.332-17.964-12.281-20.132s-17.965 3.332-20.133 12.28c-2.168 8.954 3.332 17.966 12.281 20.134 8.954 2.168 17.965-3.332 20.133-12.282m0 0"/></clipPath><clipPath id="aL"><path d="M322 279h17v17h-17Zm0 0"/></clipPath><clipPath id="aM"><path d="m334.777 298.086-14.77-6.797 6.802-14.77 14.765 6.797Zm0 0"/></clipPath><clipPath id="aN"><path d="M327.395 294.688c4.078 1.875 8.906.093 10.78-3.985a8.13 8.13 0 1 0-14.769-6.8 8.135 8.135 0 0 0 3.989 10.784m0 0"/></clipPath><clipPath id="aO"><path d="M322 279h17v17h-17Zm0 0"/></clipPath><clipPath id="aP"><path d="m334.777 298.086-14.988-6.899 6.899-14.988 14.988 6.899Zm0 0"/></clipPath><clipPath id="aQ"><path d="m334.777 298.086-14.765-6.797 6.797-14.766 14.765 6.797Zm0 0"/></clipPath><clipPath id="aR"><path d="M327.395 294.688a8.13 8.13 0 0 0 10.78-3.985 8.13 8.13 0 0 0-3.984-10.781 8.13 8.13 0 0 0-10.78 3.984 8.13 8.13 0 0 0 3.984 10.781m0 0"/></clipPath></defs><path fill="none" d="m124.48 135.426 49.41 41.226m11.708-57.629 3.222 64.274" stroke="#cec7bf" stroke-width="3"/><g clip-path="url(#a)"><g clip-path="url(#b)"><g clip-path="url(#c)"><path fill="#cec7bf" d="m185.82 97.09 15.633 16.933-16.933 15.63-15.633-16.934Zm0 0"/></g></g></g><path fill="none" d="m234.93 119.305-34.989 65.859" stroke="#a6a6a6" stroke-width="3"/><g clip-path="url(#d)"><g clip-path="url(#e)"><g clip-path="url(#f)"><path fill="#fff" d="m273.914 88.125-11.652 48.11-48.114-11.653 11.653-48.11Zm0 0"/></g></g></g><g clip-path="url(#g)"><g clip-path="url(#h)"><g clip-path="url(#i)"><g clip-path="url(#j)"><path fill="none" d="M268.086 112.18c3.219-13.285-4.941-26.664-18.227-29.883-13.285-3.215-26.664 4.945-29.882 18.23-3.215 13.285 4.945 26.664 18.23 29.88 13.285 3.218 26.664-4.942 29.879-18.227Zm0 0" stroke="#cec7bf" stroke-width="25.5"/></g></g></g></g><g clip-path="url(#k)"><g clip-path="url(#l)"><g clip-path="url(#m)"><path fill="#cec7bf" d="m250.23 97.195 3.243 15.434-15.434 3.242-3.242-15.433Zm0 0"/></g></g></g><path fill="none" d="m234.785 178.48-20.871 9.786m42.578 50.14-53.617-35.582" stroke="#cec7bf" stroke-width="3"/><path fill="none" d="m325.113 285.277-53.617-35.586" stroke="#a6a6a6" stroke-width="3"/><g clip-path="url(#n)"><g clip-path="url(#o)"><g clip-path="url(#p)"><path fill="#cec7bf" d="m279.113 266.867-34.375-11.972 11.973-34.372 34.371 11.973Zm0 0"/></g></g></g><path fill="none" d="m282.59 201.371-74.578.281" stroke="#a6a6a6" stroke-width="3"/><g clip-path="url(#q)"><g clip-path="url(#r)"><g clip-path="url(#s)"><path fill="#fff" d="m328.488 220.996-47.906 12.461-12.46-47.906 47.905-12.465Zm0 0"/></g></g></g><g clip-path="url(#t)"><g clip-path="url(#u)"><g clip-path="url(#v)"><g clip-path="url(#w)"><path fill="none" d="M304.535 227.227c13.23-3.442 21.164-16.957 17.723-30.184-3.442-13.23-16.953-21.164-30.184-17.723-13.23 3.442-21.164 16.953-17.722 30.184 3.441 13.23 16.957 21.164 30.183 17.723Zm0 0" stroke="#a6a6a6" stroke-width="39"/></g></g></g></g><g clip-path="url(#x)"><g clip-path="url(#y)"><g clip-path="url(#z)"><path fill="#fff" d="m253.867 174.559-11.496 11.496-11.496-11.496 11.496-11.496Zm0 0"/></g></g></g><g clip-path="url(#A)"><g clip-path="url(#B)"><g clip-path="url(#C)"><g clip-path="url(#D)"><path fill="none" d="M248.121 180.305a8.12 8.12 0 0 0 0-11.492 8.12 8.12 0 0 0-11.492 0 8.12 8.12 0 0 0 0 11.492 8.12 8.12 0 0 0 11.492 0Zm0 0" stroke="#a6a6a6" stroke-width="25.5"/></g></g></g></g><path fill="none" d="m42.191 119.3 127.98 64.512" stroke="#cec7bf" stroke-width="3"/><path fill="none" d="m137.969 234.102 74.988-54.149M317.91 96.926l-113.39 89.133" stroke="#a6a6a6" stroke-width="3"/><path fill="none" d="m189.184 280.863-1.524-64.336m-94.117 9.028 80.172-26.157" stroke="#cec7bf" stroke-width="3"/><path fill="none" d="m266.45 302.781-62.266-89.015" stroke="#a6a6a6" stroke-width="3"/><g clip-path="url(#E)"><g clip-path="url(#F)"><path fill="#ff5757" d="M160.746 170.371h56.25v56.25h-56.25Zm0 0"/><path fill="none" d="M188.871 170.371c-15.531 0-28.125 12.594-28.125 28.125 0 15.535 12.594 28.125 28.125 28.125 15.535 0 28.125-12.59 28.125-28.125 0-15.531-12.59-28.125-28.125-28.125Zm0 0" stroke="#fff" stroke-width="6"/></g></g><g clip-path="url(#G)"><path fill="#fff" d="M173.258 192.242v12.238a523 523 0 0 0 3.562 1.665c1.86-3.192 3.664-6.418 5.528-9.606a1605 1605 0 0 0-9.09-4.297m0 0"/></g><g clip-path="url(#H)"><path fill="#fff" d="M196.559 195.285q2.422 4.185 4.867 8.352 1.557-.757 3.11-1.52V191.31q-3.986 1.988-7.977 3.976m0 0"/></g><path fill="#fff" d="M193.863 197.32a1.56 1.56 0 0 1-1.015-.32 25 25 0 0 0-4.594-1.98q-.844-.3-1.547.257c-.543.434-1.043.922-1.562 1.38a1.25 1.25 0 0 0-.418.894c-.106.68-.676 1.113-1.157 1.539-.199.14-.117.43.04.57.238.207.511.328.824.375a1.6 1.6 0 0 0 .894-.125 3.5 3.5 0 0 0 1.442-.941c.238-.242.375-.594.687-.746.242-.118.457.086.64.21 1.051.786 2.157 1.505 3.18 2.329 1.328 1.242 2.668 2.468 3.996 3.71q.23.194.29.485c.5-.418.867-1.004 1.457-1.305.593-.277 1.218-.472 1.824-.718-1.192-2.07-2.36-4.157-3.586-6.2q-.657.399-1.395.586m0 0"/><path fill="#fff" d="M195.152 205.277c-1.515-1.34-2.964-2.754-4.46-4.113-1.06-.789-2.157-1.523-3.239-2.285a3.8 3.8 0 0 1-2.922 1.672c-.656-.012-1.453-.399-1.52-1.125-.07-.52.403-.88.786-1.133a3 3 0 0 0-.68-.293c-.281.402-.5.844-.754 1.262-1.129 2.023-2.293 4.031-3.41 6.066a5.1 5.1 0 0 1 1.61.98q.222-.284.55-.453.324-.164.688-.183a1.67 1.67 0 0 1 1.289.523q.274.293.355.692.084.392-.05.773a3.06 3.06 0 0 1 .847-1.2q.663-.502 1.465-.257.516.235.785.734t.18 1.055q.315-.14.648-.082.34.065.578.305c.41.422.418 1.043.551 1.582.403.273.828.496 1.285.664.575.113.946-.48 1.145-.93a.93.93 0 0 0-.027-.625.92.92 0 0 0-.415-.476 16.5 16.5 0 0 1-1.64-1.66c1.043.714 2.023 1.527 3.086 2.218q.268.119.547.04a.8.8 0 0 0 .441-.325q.535-.497.465-1.223c-.145-.355-.492-.558-.75-.82a22.5 22.5 0 0 1-2.063-2.117c1.168.937 2.317 1.906 3.532 2.785q.2.136.437.102a.63.63 0 0 0 .399-.215q.521-.434.703-1.082c.027-.375-.117-.66-.442-.856m0 0"/><path fill="#fff" d="M181.613 206.215a2.32 2.32 0 0 0-1.218.914 1 1 0 0 0-.266.73q.013.206.101.387a1 1 0 0 0 .247.313q.527.381 1.136.617c.207.074.414.07.617-.024a.8.8 0 0 0 .43-.445q.264-.676.41-1.387a1.2 1.2 0 0 0-.144-.492 1.2 1.2 0 0 0-.336-.387 1.2 1.2 0 0 0-.977-.226m4.684 1.668a1.195 1.195 0 0 0-1.43-1.164c-.336.101-.594.3-.785.594q-.439.567-.809 1.183c-.28.484-.28.973 0 1.457.114.152.258.281.426.375a1.4 1.4 0 0 0 1.11.113q.275-.092.492-.285.496-.568.722-1.289.251-.457.274-.984m0 0"/><g clip-path="url(#I)"><path fill="#fff" d="M187.824 208.922a.72.72 0 0 0-.41-.442.72.72 0 0 0-.601-.003c-.407.312-.485.886-.743 1.312a.89.89 0 0 0-.05 1.117c.421.285.89.406 1.398.36a.8.8 0 0 0 .336-.082.8.8 0 0 0 .27-.211.79.79 0 0 0 .176-.648 9 9 0 0 0-.376-1.403m0 0"/></g><path fill="none" d="m140.738 181.094 21.68 7.84" stroke="#a6a6a6" stroke-width="3"/><g clip-path="url(#J)"><g clip-path="url(#K)"><path fill="#fff" d="M124.48 170.371h16.258v16.258H124.48Zm0 0"/></g></g><g clip-path="url(#L)"><g clip-path="url(#M)"><path fill="none" d="M132.61 170.371a8.127 8.127 0 1 0 0 16.254 8.124 8.124 0 0 0 8.124-8.125 8.127 8.127 0 0 0-8.125-8.129Zm0 0" stroke="#a6a6a6" stroke-width="25.5"/></g></g><path fill="none" d="m58.156 76.473 49.41 41.23" stroke="#cec7bf" stroke-width="3"/><g clip-path="url(#N)"><g clip-path="url(#O)"><g clip-path="url(#P)"><path fill="#fff" d="m105.297 97.086 38.332 18.266-18.262 38.332-38.332-18.266Zm0 0"/></g></g></g><g clip-path="url(#Q)"><g clip-path="url(#R)"><g clip-path="url(#S)"><g clip-path="url(#T)"><path fill="none" d="M124.46 106.219c-10.581-5.043-23.253-.551-28.292 10.035-5.043 10.582-.55 23.25 10.031 28.293 10.586 5.043 23.254.55 28.297-10.035 5.043-10.582.55-23.25-10.035-28.293Zm0 0" stroke="#a6a6a6" stroke-width="25.5"/></g></g></g></g><g clip-path="url(#U)"><g clip-path="url(#V)"><path fill="#a6a6a6" d="M108.527 118.582h13.61v13.606h-13.61Zm0 0"/></g></g><g clip-path="url(#W)"><g clip-path="url(#X)"><path fill="#cec7bf" d="M42.191 61.43h23.043v23.047H42.191Zm0 0"/></g></g><g clip-path="url(#Y)"><g clip-path="url(#Z)"><g clip-path="url(#aa)"><path fill="#fff" d="m28.133 104.805 37.101 4.058-4.058 37.102-37.106-4.059Zm0 0"/></g></g></g><g clip-path="url(#ab)"><g clip-path="url(#ac)"><g clip-path="url(#ad)"><g clip-path="url(#ae)"><path fill="none" d="M46.68 106.832c-10.242-1.121-19.457 6.273-20.578 16.516-1.122 10.242 6.273 19.457 16.515 20.578s19.457-6.274 20.578-16.516-6.273-19.457-16.515-20.578Zm0 0" stroke="#cec7bf" stroke-width="25.5"/></g></g></g></g><g clip-path="url(#af)"><g clip-path="url(#ag)"><g clip-path="url(#ah)"><path fill="#a6a6a6" d="m350.926 84.438-16.2 25.765-25.765-16.195 16.195-25.766Zm0 0"/></g></g></g><g clip-path="url(#ai)"><g clip-path="url(#aj)"><g clip-path="url(#ak)"><path fill="#a6a6a6" d="m317.902 111.828-19.859 31.602-31.602-19.864 19.864-31.601Zm0 0"/></g></g></g><g clip-path="url(#al)"><path fill="#fff" d="M292.219 119.438c2.953 0 5.355-3.137 5.355-6.09a5.365 5.365 0 0 0-5.355-5.36 5.365 5.365 0 0 0-5.356 5.36c0 2.953 2.403 6.09 5.356 6.09m0 0"/></g><g clip-path="url(#am)"><path fill="#fff" d="M296.242 119.492a6.17 6.17 0 0 1-3.742 1.262h-.562a6.15 6.15 0 0 1-3.739-1.262 7.13 7.13 0 0 0-5.984 7.035c0 1.95 4.476 3.528 10.004 3.528s10.004-1.578 10.004-3.528a7.13 7.13 0 0 0-5.98-7.035m0 0"/></g><g clip-path="url(#an)"><g clip-path="url(#ao)"><g clip-path="url(#ap)"><path fill="#a6a6a6" d="m96.906 249.941 21.016-30.847 30.844 21.015-21.012 30.844Zm0 0"/></g></g></g><g clip-path="url(#aq)"><path fill="#fff" d="M122.852 244.121c2.953 0 5.355-3.137 5.355-6.09a5.365 5.365 0 0 0-5.355-5.36 5.37 5.37 0 0 0-5.36 5.36c.004 2.953 2.406 6.09 5.36 6.09m0 0"/></g><g clip-path="url(#ar)"><path fill="#fff" d="M126.871 244.176a6.17 6.17 0 0 1-3.738 1.262h-.563a6.17 6.17 0 0 1-3.742-1.262 7.13 7.13 0 0 0-5.984 7.035c0 1.95 4.48 3.527 10.008 3.527 5.523 0 10.003-1.578 10.003-3.527a7.13 7.13 0 0 0-5.984-7.035m0 0"/></g><path fill="none" d="m69.547 264.207 37.867-10.078" stroke="#a6a6a6" stroke-width="3"/><g clip-path="url(#as)"><g clip-path="url(#at)"><g clip-path="url(#au)"><path fill="#a6a6a6" d="m42.191 268.723 14.672-17.774 17.77 14.672-14.668 17.774Zm0 0"/></g></g></g><g clip-path="url(#av)"><g clip-path="url(#aw)"><g clip-path="url(#ax)"><path fill="#a6a6a6" d="m188.383 302.781-15.18-17.34 17.34-15.18 15.18 17.34Zm0 0"/></g></g></g><g clip-path="url(#ay)"><g clip-path="url(#az)"><g clip-path="url(#aA)"><path fill="#a6a6a6" d="m74.633 230.605 8.66-13.726 13.73 8.66-8.664 13.73Zm0 0"/></g></g></g><g clip-path="url(#aB)"><g clip-path="url(#aC)"><g clip-path="url(#aD)"><path fill="#fff" d="m270.438 313.566-14.77-6.8 6.8-14.766 14.766 6.797Zm0 0"/></g></g></g><g clip-path="url(#aE)"><g clip-path="url(#aF)"><g clip-path="url(#aG)"><g clip-path="url(#aH)"><path fill="none" d="M263.055 310.168c4.078 1.875 8.906.094 10.78-3.984 1.876-4.079.095-8.907-3.983-10.782a8.13 8.13 0 0 0-10.782 3.985 8.13 8.13 0 0 0 3.985 10.781Zm0 0" stroke="#a6a6a6" stroke-width="25.5"/></g></g></g></g><g clip-path="url(#aI)"><g clip-path="url(#aJ)"><g clip-path="url(#aK)"><path fill="#cec7bf" d="m350.914 275.023-7.848 32.414-32.418-7.851 7.852-32.414Zm0 0"/></g></g></g><g clip-path="url(#aL)"><g clip-path="url(#aM)"><g clip-path="url(#aN)"><path fill="#cec7bf" d="m334.777 298.086-14.77-6.797 6.802-14.77 14.765 6.797Zm0 0"/></g></g></g><g clip-path="url(#aO)"><g clip-path="url(#aP)"><g clip-path="url(#aQ)"><g clip-path="url(#aR)"><path fill="none" d="M327.395 294.687a8.13 8.13 0 0 0 10.78-3.984 8.13 8.13 0 0 0-3.984-10.781 8.13 8.13 0 0 0-10.78 3.984 8.13 8.13 0 0 0 3.984 10.781Zm0 0" stroke="#fff" stroke-width="28.5"/></g></g></g></g></svg>