<svg xmlns="http://www.w3.org/2000/svg" xmlns:xlink="http://www.w3.org/1999/xlink" width="500" zoomAndPan="magnify" viewBox="0 0 375 374.999991" height="500" preserveAspectRatio="xMidYMid meet" version="1.0"><defs><clipPath id="a3aae71758"><path d="M 33.75 0 L 341.25 0 C 350.199219 0 358.785156 3.554688 365.113281 9.886719 C 371.445312 16.214844 375 24.800781 375 33.75 L 375 341.25 C 375 350.199219 371.445312 358.785156 365.113281 365.113281 C 358.785156 371.445312 350.199219 375 341.25 375 L 33.75 375 C 15.109375 375 0 359.890625 0 341.25 L 0 33.75 C 0 15.109375 15.109375 0 33.75 0 Z M 33.75 0 " clip-rule="nonzero"/></clipPath><clipPath id="2ff750f228"><path d="M 38 212 L 337 212 L 337 327.5625 L 38 327.5625 Z M 38 212 " clip-rule="nonzero"/></clipPath></defs><g clip-path="url(#a3aae71758)"><rect x="-37.5" width="450" fill="#ff5757" y="-37.499999" height="449.999989" fill-opacity="1"/></g><path fill="#ffffff" d="M 187.5 48.09375 C 181.332031 48.09375 175.175781 48.527344 169.109375 49.3125 L 169.109375 49.324219 C 164.359375 49.769531 160.152344 52.542969 157.839844 56.710938 L 157.800781 56.722656 C 153.761719 63.367188 148.570312 69.589844 142.339844 75.21875 C 138.808594 77.953125 136.765625 82.203125 136.765625 86.675781 C 136.765625 88.203125 136.984375 89.738281 137.464844 91.191406 C 140.125 100.40625 143.683594 109.359375 148.140625 117.855469 C 155.75 132.371094 166.140625 145.75 179.546875 155.417969 C 181.804688 157.140625 184.652344 158.070312 187.5 158.070312 C 190.347656 158.070312 193.1875 157.140625 195.453125 155.417969 C 208.855469 145.75 219.25 132.378906 226.859375 117.855469 C 231.308594 109.351562 234.882812 100.398438 237.535156 91.191406 C 238.007812 89.738281 238.246094 88.203125 238.246094 86.675781 C 238.246094 82.203125 236.203125 77.953125 232.671875 75.21875 C 226.449219 69.589844 221.253906 63.367188 217.214844 56.722656 L 217.175781 56.710938 C 214.859375 52.542969 210.644531 49.777344 205.902344 49.324219 L 205.902344 49.3125 C 199.828125 48.53125 193.667969 48.09375 187.5 48.09375 Z M 208.957031 78.933594 C 211.15625 78.878906 212.167969 81.648438 210.4375 83.015625 C 204.375 87.804688 199.058594 93.550781 194.871094 100.03125 C 191.660156 104.996094 189.050781 110.363281 187.183594 115.976562 C 186.410156 118.527344 184.0625 120.285156 181.394531 120.285156 C 180.882812 120.285156 180.398438 120.1875 179.917969 120.074219 C 179.667969 120.019531 179.425781 119.929688 179.191406 119.847656 C 179.09375 119.808594 179.007812 119.765625 178.914062 119.71875 C 177.652344 119.191406 176.550781 118.3125 175.875 117.089844 L 166.679688 102.304688 C 166.226562 101.527344 165.992188 100.640625 165.992188 99.742188 C 165.992188 96.960938 168.226562 94.703125 171 94.652344 L 171.078125 94.652344 C 172.648438 94.652344 174.152344 95.363281 175.121094 96.609375 L 179.957031 102.953125 C 181.457031 100.28125 183.140625 97.714844 185.03125 95.300781 C 189.230469 89.9375 194.410156 85.195312 200.566406 82.023438 C 203.082031 80.726562 205.722656 79.714844 208.441406 78.996094 C 208.601562 78.949219 208.78125 78.9375 208.957031 78.933594 Z M 208.957031 78.933594 " fill-opacity="1" fill-rule="nonzero"/><g clip-path="url(#2ff750f228)"><path fill="#ffffff" d="M 102.679688 212.453125 C 101.050781 212.453125 99.476562 212.703125 97.960938 213.058594 C 97.179688 213.222656 96.410156 213.46875 95.636719 213.761719 C 95.210938 213.914062 94.792969 214.054688 94.382812 214.234375 C 89.113281 216.453125 83.847656 218.761719 78.710938 221.332031 C 67.652344 226.851562 56.960938 233.105469 46.671875 239.972656 C 46.585938 240.027344 46.523438 240.097656 46.4375 240.144531 C 45.628906 240.609375 44.886719 241.132812 44.191406 241.730469 C 44.109375 241.796875 44.046875 241.875 43.964844 241.941406 C 43.296875 242.535156 42.683594 243.171875 42.128906 243.871094 C 42.039062 243.984375 41.964844 244.097656 41.878906 244.214844 C 41.371094 244.890625 40.921875 245.597656 40.53125 246.339844 C 40.441406 246.488281 40.378906 246.640625 40.304688 246.789062 C 39.953125 247.515625 39.644531 248.25 39.40625 249.023438 C 39.347656 249.226562 39.300781 249.433594 39.25 249.644531 C 39.058594 250.355469 38.914062 251.085938 38.824219 251.824219 C 38.792969 252.128906 38.792969 252.4375 38.773438 252.75 C 38.738281 253.382812 38.726562 254.007812 38.773438 254.652344 C 38.808594 255.070312 38.871094 255.480469 38.929688 255.90625 C 38.984375 256.277344 38.976562 256.628906 39.0625 257.003906 C 40.160156 262.710938 41.347656 268.425781 42.816406 274.074219 C 45.921875 286.046875 49.824219 297.789062 54.402344 309.28125 C 56.933594 317.394531 65.515625 321.996094 73.679688 319.652344 C 77.792969 318.46875 81.039062 315.746094 82.980469 312.28125 C 85.246094 321.089844 93.160156 327.582031 102.691406 327.582031 L 133.832031 327.582031 C 145.144531 327.582031 154.257812 318.464844 154.257812 307.15625 L 154.257812 247.1875 C 171.21875 249.058594 188.324219 249.535156 205.363281 248.453125 C 210.515625 248.125 215.648438 247.570312 220.769531 246.960938 L 220.769531 307.15625 C 220.769531 318.464844 229.871094 327.582031 241.179688 327.582031 L 272.320312 327.582031 C 281.851562 327.582031 289.761719 321.089844 292.03125 312.28125 C 293.972656 315.746094 297.226562 318.46875 301.335938 319.652344 C 309.5 321.996094 318.085938 317.394531 320.609375 309.28125 C 325.191406 297.789062 329.09375 286.039062 332.199219 274.074219 C 333.664062 268.417969 334.855469 262.707031 335.949219 257.003906 C 336.03125 256.628906 336.027344 256.277344 336.082031 255.90625 C 336.148438 255.480469 336.21875 255.078125 336.242188 254.652344 C 336.289062 254 336.273438 253.378906 336.242188 252.75 C 336.226562 252.4375 336.226562 252.128906 336.1875 251.824219 C 336.105469 251.085938 335.953125 250.355469 335.765625 249.644531 C 335.710938 249.433594 335.667969 249.226562 335.605469 249.023438 C 335.371094 248.25 335.058594 247.515625 334.707031 246.789062 C 334.632812 246.648438 334.570312 246.484375 334.496094 246.339844 C 334.097656 245.597656 333.65625 244.898438 333.148438 244.226562 C 333.0625 244.113281 332.992188 243.984375 332.898438 243.871094 C 332.34375 243.167969 331.71875 242.535156 331.046875 241.941406 C 330.96875 241.875 330.90625 241.8125 330.824219 241.742188 C 330.125 241.148438 329.382812 240.625 328.578125 240.15625 C 328.488281 240.101562 328.425781 240.035156 328.339844 239.984375 C 318.050781 233.121094 307.367188 226.871094 296.3125 221.34375 C 291.171875 218.773438 285.914062 216.46875 280.644531 214.25 C 280.230469 214.066406 279.800781 213.929688 279.375 213.773438 C 278.613281 213.484375 277.835938 213.242188 277.050781 213.074219 C 275.527344 212.714844 273.976562 212.464844 272.347656 212.464844 L 241.195312 212.464844 C 240.734375 212.464844 240.300781 212.570312 239.847656 212.597656 L 239.699219 212.597656 C 239.46875 212.609375 239.25 212.664062 239.011719 212.691406 C 238.222656 212.777344 237.4375 212.832031 236.675781 213.007812 C 225.6875 215.125 214.570312 216.636719 203.394531 217.355469 C 182.648438 218.671875 161.734375 217.4375 141.246094 213.890625 C 138.945312 213 136.472656 212.464844 133.847656 212.464844 L 102.679688 212.464844 Z M 82.253906 254.890625 L 82.253906 294.457031 C 78.695312 285.21875 75.507812 275.816406 73.019531 266.226562 C 72.578125 264.519531 72.273438 262.765625 71.882812 261.046875 C 75.296875 258.921875 78.75 256.859375 82.253906 254.890625 Z M 292.746094 254.890625 C 296.257812 256.859375 299.703125 258.921875 303.117188 261.046875 C 302.726562 262.765625 302.421875 264.519531 301.980469 266.226562 C 299.492188 275.816406 296.304688 285.21875 292.746094 294.457031 Z M 292.746094 254.890625 " fill-opacity="1" fill-rule="nonzero"/></g><path fill="#ffffff" d="M 255.4375 122.148438 L 255.4375 122.175781 C 251.445312 122.371094 247.617188 123.332031 243.996094 124.726562 C 238.117188 126.976562 232.382812 130.5625 228.710938 136.074219 C 226.367188 139.582031 225.023438 143.605469 224.425781 147.636719 C 223.832031 151.660156 223.972656 155.640625 224.402344 159.542969 C 224.480469 160.226562 224.597656 160.910156 224.691406 161.59375 C 224.652344 161.617188 224.601562 161.625 224.570312 161.660156 C 223.90625 162.195312 222.742188 163.15625 222.074219 164.765625 C 221.464844 166.226562 221.539062 167.566406 221.558594 168.242188 C 221.613281 169.835938 221.742188 171.441406 221.984375 173.039062 C 222.472656 176.332031 223.433594 180.050781 225.964844 183.171875 C 226.984375 184.4375 228.261719 185.335938 229.582031 186.152344 C 230.414062 188.886719 231.46875 191.652344 233.160156 194.25 C 236.664062 199.648438 241.996094 203.59375 247.980469 205.574219 C 250.929688 206.554688 254.027344 207.0625 257.148438 207.082031 L 257.203125 207.082031 C 260.328125 207.070312 263.425781 206.554688 266.367188 205.574219 C 272.359375 203.59375 277.691406 199.648438 281.1875 194.25 C 283.015625 191.445312 284.097656 188.453125 284.929688 185.503906 C 285.84375 184.828125 286.757812 184.125 287.535156 183.164062 C 290.0625 180.046875 291.023438 176.324219 291.511719 173.03125 C 291.75 171.433594 291.871094 169.832031 291.925781 168.234375 C 291.945312 167.558594 292.03125 166.21875 291.421875 164.757812 C 290.746094 163.148438 289.578125 162.1875 288.914062 161.652344 C 288.730469 161.503906 288.554688 161.394531 288.386719 161.292969 C 288.519531 158.027344 288.589844 154.746094 288.519531 151.480469 C 288.425781 147.183594 288.15625 142.5625 286.195312 138.214844 C 284.503906 134.472656 281.636719 131.265625 277.90625 129.359375 C 276.242188 128.507812 274.417969 128.027344 272.570312 127.75 C 270.980469 126.375 269.257812 125.152344 267.328125 124.273438 C 263.574219 122.582031 259.433594 121.953125 255.4375 122.148438 Z M 255.4375 122.148438 " fill-opacity="1" fill-rule="nonzero"/><path fill="#ffffff" d="M 119.5625 122.148438 C 115.566406 121.953125 111.425781 122.574219 107.671875 124.273438 C 105.738281 125.144531 104.019531 126.375 102.429688 127.75 C 100.574219 128.027344 98.761719 128.507812 97.09375 129.359375 C 93.363281 131.257812 90.496094 134.472656 88.804688 138.214844 C 86.84375 142.5625 86.574219 147.183594 86.480469 151.480469 C 86.410156 154.746094 86.480469 158.027344 86.613281 161.292969 C 86.445312 161.394531 86.277344 161.503906 86.085938 161.652344 C 85.421875 162.1875 84.246094 163.148438 83.578125 164.757812 C 82.96875 166.21875 83.054688 167.558594 83.074219 168.234375 C 83.125 169.832031 83.25 171.433594 83.488281 173.03125 C 83.984375 176.324219 84.9375 180.046875 87.464844 183.164062 C 88.242188 184.125 89.15625 184.828125 90.070312 185.503906 C 90.910156 188.453125 91.984375 191.445312 93.8125 194.25 C 97.316406 199.648438 102.644531 203.59375 108.632812 205.574219 C 111.582031 206.554688 114.679688 207.070312 117.796875 207.082031 C 117.796875 207.082031 117.804688 207.082031 117.8125 207.082031 L 117.839844 207.082031 C 117.839844 207.082031 117.84375 207.082031 117.84375 207.082031 C 120.972656 207.0625 124.070312 206.554688 127.019531 205.574219 C 133.011719 203.59375 138.335938 199.648438 141.839844 194.25 C 143.53125 191.648438 144.585938 188.886719 145.417969 186.152344 C 146.738281 185.335938 148.015625 184.429688 149.035156 183.171875 C 151.566406 180.050781 152.527344 176.332031 153.015625 173.039062 C 153.25 171.441406 153.386719 169.835938 153.441406 168.242188 C 153.460938 167.566406 153.535156 166.226562 152.925781 164.765625 C 152.257812 163.15625 151.09375 162.195312 150.429688 161.660156 C 150.398438 161.632812 150.347656 161.625 150.308594 161.59375 C 150.402344 160.910156 150.523438 160.226562 150.597656 159.542969 C 151.027344 155.640625 151.167969 151.660156 150.574219 147.636719 C 149.976562 143.605469 148.632812 139.582031 146.289062 136.074219 C 142.617188 130.570312 136.886719 126.984375 131.003906 124.726562 C 127.382812 123.332031 123.546875 122.371094 119.5625 122.175781 Z M 119.5625 122.148438 " fill-opacity="1" fill-rule="nonzero"/></svg>