<svg xmlns="http://www.w3.org/2000/svg" xmlns:xlink="http://www.w3.org/1999/xlink" width="500" zoomAndPan="magnify" viewBox="0 0 375 374.999991" height="500" preserveAspectRatio="xMidYMid meet" version="1.0"><defs><clipPath id="5bc8d12a21"><path d="M 33.75 0 L 341.25 0 C 350.199219 0 358.785156 3.554688 365.113281 9.886719 C 371.445312 16.214844 375 24.800781 375 33.75 L 375 341.25 C 375 350.199219 371.445312 358.785156 365.113281 365.113281 C 358.785156 371.445312 350.199219 375 341.25 375 L 33.75 375 C 15.109375 375 0 359.890625 0 341.25 L 0 33.75 C 0 15.109375 15.109375 0 33.75 0 Z M 33.75 0 " clip-rule="nonzero"/></clipPath><clipPath id="d1fb732d71"><path d="M 194 178.214844 L 343.84375 178.214844 L 343.84375 307.214844 L 194 307.214844 Z M 194 178.214844 " clip-rule="nonzero"/></clipPath><clipPath id="f85ac98387"><path d="M 48 57 L 256 57 L 256 321 L 48 321 Z M 48 57 " clip-rule="nonzero"/></clipPath><clipPath id="4e66c05cd3"><path d="M 0 94.921875 L 204.417969 27.492188 L 296.75 307.410156 L 92.332031 374.835938 Z M 0 94.921875 " clip-rule="nonzero"/></clipPath><clipPath id="bec4e68d43"><path d="M 0 94.921875 L 204.417969 27.492188 L 296.75 307.410156 L 92.332031 374.835938 Z M 0 94.921875 " clip-rule="nonzero"/></clipPath><clipPath id="e2026d223a"><path d="M 37 53 L 259 53 L 259 349 L 37 349 Z M 37 53 " clip-rule="nonzero"/></clipPath><clipPath id="146d406d58"><path d="M 0 94.921875 L 204.417969 27.492188 L 296.75 307.410156 L 92.332031 374.835938 Z M 0 94.921875 " clip-rule="nonzero"/></clipPath><clipPath id="454b2afd18"><path d="M 0 94.921875 L 204.417969 27.492188 L 296.75 307.410156 L 92.332031 374.835938 Z M 0 94.921875 " clip-rule="nonzero"/></clipPath><clipPath id="091b1c845d"><path d="M 48 57 L 256 57 L 256 321 L 48 321 Z M 48 57 " clip-rule="nonzero"/></clipPath><clipPath id="ba86a43ae0"><path d="M 0 94.921875 L 204.417969 27.492188 L 296.75 307.410156 L 92.332031 374.835938 Z M 0 94.921875 " clip-rule="nonzero"/></clipPath><clipPath id="eaafebd82b"><path d="M 0 94.921875 L 204.417969 27.492188 L 296.75 307.410156 L 92.332031 374.835938 Z M 0 94.921875 " clip-rule="nonzero"/></clipPath><clipPath id="833c6d72b9"><path d="M 57 85 L 248 85 L 248 287 L 57 287 Z M 57 85 " clip-rule="nonzero"/></clipPath><clipPath id="1b636278e7"><path d="M 0 94.921875 L 204.417969 27.492188 L 296.75 307.410156 L 92.332031 374.835938 Z M 0 94.921875 " clip-rule="nonzero"/></clipPath><clipPath id="ee1057770c"><path d="M 0 94.921875 L 204.417969 27.492188 L 296.75 307.410156 L 92.332031 374.835938 Z M 0 94.921875 " clip-rule="nonzero"/></clipPath><clipPath id="50d912476c"><path d="M 205 35 L 291 35 L 291 114 L 205 114 Z M 205 35 " clip-rule="nonzero"/></clipPath><clipPath id="080f5c0073"><path d="M 199.359375 64.65625 L 264.496094 27.480469 L 296.839844 84.152344 L 231.703125 121.328125 Z M 199.359375 64.65625 " clip-rule="nonzero"/></clipPath><clipPath id="2471989882"><path d="M 199.359375 64.65625 L 264.496094 27.480469 L 296.839844 84.152344 L 231.703125 121.328125 Z M 199.359375 64.65625 " clip-rule="nonzero"/></clipPath><clipPath id="ce63a10e5a"><path d="M 199.359375 64.65625 L 264.496094 27.480469 L 296.839844 84.152344 L 231.703125 121.328125 Z M 199.359375 64.65625 " clip-rule="nonzero"/></clipPath></defs><g clip-path="url(#5bc8d12a21)"><rect x="-37.5" width="450" fill="#ff5757" y="-37.499999" height="449.999989" fill-opacity="1"/></g><g clip-path="url(#d1fb732d71)"><path fill="#ffffff" d="M 268.992188 178.460938 C 265.898438 178.460938 262.804688 179.957031 261.097656 182.957031 L 198.351562 293.308594 C 194.941406 299.308594 199.355469 307.085938 206.253906 307.085938 L 331.730469 307.085938 C 338.628906 307.085938 343.042969 299.304688 339.632812 293.304688 L 276.886719 182.957031 C 275.179688 179.957031 272.085938 178.460938 268.992188 178.460938 Z M 268.992188 184.214844 C 270.011719 184.214844 271.035156 184.785156 271.683594 185.921875 L 334.425781 296.261719 L 334.421875 296.261719 C 335.714844 298.535156 334.242188 301.097656 331.730469 301.097656 L 206.253906 301.097656 C 203.742188 301.097656 202.265625 298.539062 203.558594 296.269531 L 266.300781 185.921875 C 266.949219 184.785156 267.972656 184.214844 268.992188 184.214844 Z M 221.09375 184.296875 C 220.511719 184.289062 219.972656 184.441406 219.476562 184.746094 C 218.980469 185.054688 218.609375 185.472656 218.355469 185.996094 C 218.105469 186.523438 218.015625 187.074219 218.085938 187.65625 C 218.15625 188.234375 218.378906 188.746094 218.75 189.195312 L 230.726562 204.167969 C 230.972656 204.476562 231.269531 204.726562 231.617188 204.921875 C 231.96875 205.113281 232.339844 205.230469 232.734375 205.273438 C 233.128906 205.320312 233.515625 205.285156 233.898438 205.175781 C 234.28125 205.0625 234.625 204.882812 234.9375 204.636719 C 235.246094 204.386719 235.5 204.089844 235.691406 203.742188 C 235.882812 203.394531 236 203.023438 236.042969 202.625 C 236.085938 202.230469 236.054688 201.84375 235.941406 201.460938 C 235.832031 201.082031 235.652344 200.734375 235.402344 200.425781 L 223.425781 185.453125 C 223.148438 185.09375 222.800781 184.8125 222.394531 184.609375 C 221.984375 184.40625 221.550781 184.300781 221.09375 184.296875 Z M 316.804688 184.300781 C 315.875 184.339844 315.128906 184.722656 314.558594 185.453125 L 302.582031 200.425781 C 302.332031 200.734375 302.152344 201.082031 302.042969 201.460938 C 301.933594 201.84375 301.898438 202.230469 301.941406 202.625 C 301.988281 203.019531 302.105469 203.390625 302.296875 203.742188 C 302.488281 204.089844 302.738281 204.386719 303.050781 204.632812 C 303.359375 204.882812 303.707031 205.0625 304.085938 205.171875 C 304.46875 205.28125 304.855469 205.316406 305.25 205.273438 C 305.644531 205.230469 306.015625 205.109375 306.367188 204.917969 C 306.714844 204.726562 307.011719 204.476562 307.257812 204.167969 L 319.234375 189.195312 C 319.609375 188.742188 319.832031 188.21875 319.898438 187.632812 C 319.964844 187.046875 319.867188 186.488281 319.605469 185.960938 C 319.34375 185.433594 318.957031 185.019531 318.449219 184.71875 C 317.941406 184.417969 317.390625 184.277344 316.804688 184.300781 Z M 203.019531 205.273438 C 202.683594 205.28125 202.355469 205.34375 202.042969 205.460938 C 201.726562 205.578125 201.441406 205.742188 201.179688 205.957031 C 200.921875 206.171875 200.703125 206.421875 200.53125 206.707031 C 200.355469 206.996094 200.230469 207.300781 200.160156 207.628906 C 200.089844 207.960938 200.074219 208.289062 200.113281 208.625 C 200.15625 208.957031 200.25 209.277344 200.394531 209.578125 C 200.542969 209.878906 200.734375 210.148438 200.972656 210.386719 C 201.210938 210.625 201.480469 210.816406 201.785156 210.960938 L 219.75 219.945312 C 220.105469 220.121094 220.480469 220.226562 220.875 220.253906 C 221.273438 220.28125 221.660156 220.234375 222.035156 220.109375 C 222.414062 219.984375 222.75 219.789062 223.050781 219.53125 C 223.351562 219.269531 223.589844 218.960938 223.769531 218.605469 C 223.945312 218.25 224.050781 217.875 224.078125 217.476562 C 224.105469 217.082031 224.058594 216.695312 223.929688 216.320312 C 223.804688 215.941406 223.613281 215.601562 223.351562 215.304688 C 223.089844 215.003906 222.78125 214.765625 222.425781 214.585938 L 204.464844 205.605469 C 204.011719 205.371094 203.527344 205.261719 203.019531 205.273438 Z M 334.871094 205.273438 C 334.394531 205.277344 333.945312 205.386719 333.519531 205.605469 L 315.558594 214.585938 C 315.203125 214.765625 314.894531 215.003906 314.632812 215.304688 C 314.375 215.601562 314.179688 215.941406 314.054688 216.320312 C 313.929688 216.695312 313.878906 217.082031 313.910156 217.476562 C 313.9375 217.875 314.039062 218.25 314.21875 218.605469 C 314.394531 218.960938 314.632812 219.269531 314.933594 219.527344 C 315.234375 219.789062 315.570312 219.980469 315.949219 220.105469 C 316.324219 220.234375 316.710938 220.28125 317.109375 220.253906 C 317.503906 220.222656 317.878906 220.121094 318.234375 219.945312 L 336.199219 210.960938 C 336.503906 210.8125 336.777344 210.621094 337.019531 210.378906 C 337.257812 210.136719 337.453125 209.863281 337.597656 209.554688 C 337.746094 209.25 337.835938 208.925781 337.871094 208.589844 C 337.910156 208.25 337.890625 207.917969 337.8125 207.585938 C 337.734375 207.253906 337.605469 206.945312 337.421875 206.660156 C 337.238281 206.371094 337.015625 206.125 336.746094 205.914062 C 336.480469 205.703125 336.1875 205.542969 335.863281 205.433594 C 335.542969 205.324219 335.210938 205.269531 334.871094 205.273438 Z M 265.992188 220.257812 C 264.339844 220.257812 263.003906 221.601562 263.003906 223.253906 L 263.003906 265.167969 C 263.003906 266.824219 264.332031 268.164062 265.988281 268.164062 L 271.984375 268.164062 C 273.640625 268.164062 274.972656 266.824219 274.972656 265.167969 L 274.980469 223.253906 C 274.980469 221.601562 273.648438 220.257812 271.992188 220.257812 Z M 197.136719 232.234375 C 196.734375 232.230469 196.347656 232.300781 195.976562 232.449219 C 195.605469 232.601562 195.277344 232.816406 194.992188 233.097656 C 194.707031 233.378906 194.484375 233.703125 194.332031 234.074219 C 194.175781 234.445312 194.097656 234.828125 194.097656 235.230469 C 194.097656 235.628906 194.175781 236.015625 194.332031 236.386719 C 194.484375 236.753906 194.707031 237.082031 194.992188 237.363281 C 195.277344 237.644531 195.605469 237.859375 195.976562 238.007812 C 196.347656 238.15625 196.734375 238.230469 197.136719 238.222656 L 215.101562 238.222656 C 215.5 238.230469 215.886719 238.15625 216.257812 238.007812 C 216.628906 237.859375 216.960938 237.644531 217.246094 237.363281 C 217.53125 237.082031 217.75 236.753906 217.90625 236.386719 C 218.058594 236.015625 218.136719 235.628906 218.136719 235.230469 C 218.136719 234.828125 218.058594 234.445312 217.90625 234.074219 C 217.75 233.703125 217.53125 233.378906 217.246094 233.097656 C 216.960938 232.816406 216.628906 232.601562 216.257812 232.449219 C 215.886719 232.300781 215.5 232.230469 215.101562 232.234375 Z M 322.882812 232.234375 C 322.484375 232.230469 322.097656 232.300781 321.726562 232.449219 C 321.355469 232.601562 321.023438 232.816406 320.738281 233.097656 C 320.453125 233.378906 320.234375 233.703125 320.078125 234.074219 C 319.925781 234.445312 319.847656 234.828125 319.847656 235.230469 C 319.847656 235.628906 319.925781 236.015625 320.078125 236.386719 C 320.234375 236.753906 320.453125 237.082031 320.738281 237.363281 C 321.023438 237.644531 321.355469 237.859375 321.726562 238.007812 C 322.097656 238.15625 322.484375 238.230469 322.882812 238.222656 L 340.847656 238.222656 C 341.25 238.230469 341.636719 238.15625 342.007812 238.007812 C 342.378906 237.859375 342.707031 237.644531 342.992188 237.363281 C 343.277344 237.082031 343.5 236.753906 343.652344 236.386719 C 343.808594 236.015625 343.886719 235.628906 343.886719 235.230469 C 343.886719 234.828125 343.808594 234.445312 343.652344 234.074219 C 343.5 233.703125 343.277344 233.378906 342.992188 233.097656 C 342.707031 232.816406 342.378906 232.601562 342.007812 232.449219 C 341.636719 232.300781 341.25 232.230469 340.847656 232.234375 Z M 265.992188 277.144531 C 264.339844 277.144531 263.003906 278.488281 263.003906 280.140625 L 263.003906 286.128906 C 263.003906 287.78125 264.335938 289.121094 265.992188 289.121094 L 271.992188 289.121094 C 273.644531 289.121094 274.980469 287.78125 274.980469 286.128906 L 274.980469 280.140625 C 274.980469 278.488281 273.648438 277.144531 271.992188 277.144531 Z M 265.992188 277.144531 " fill-opacity="1" fill-rule="nonzero"/></g><g clip-path="url(#f85ac98387)"><g clip-path="url(#4e66c05cd3)"><g clip-path="url(#bec4e68d43)"><path fill="#ff5757" d="M 243.328125 157.386719 C 268.117188 232.539062 254.921875 294.757812 192.933594 315.207031 C 129.824219 336.023438 83.335938 288.457031 60.152344 219.484375 C 36.730469 148.480469 48.066406 83.082031 111.175781 62.265625 C 176.136719 40.839844 221.273438 90.527344 243.328125 157.386719 Z M 117.214844 200.664062 C 135.683594 256.660156 158.027344 278.847656 179.8125 271.660156 C 201.988281 264.347656 204.808594 232.621094 186.46875 177.011719 C 168.625 122.917969 147.554688 98.203125 124.652344 105.757812 C 103.972656 112.515625 98.371094 143.546875 117.214844 200.664062 Z M 117.214844 200.664062 " fill-opacity="1" fill-rule="nonzero"/></g></g></g><g clip-path="url(#e2026d223a)"><g clip-path="url(#146d406d58)"><g clip-path="url(#454b2afd18)"><path fill="#ff5757" d="M 246.910156 156.207031 C 234.921875 119.863281 217.203125 91.371094 195.703125 73.8125 C 183.726562 64.042969 170.65625 57.734375 156.847656 55.027344 C 142.03125 52.089844 126.234375 53.328125 109.996094 58.683594 C 79.027344 68.898438 58.132812 90.445312 49.53125 121.035156 C 49.496094 121.109375 49.515625 121.164062 49.476562 121.238281 C 49.476562 121.238281 49.4375 121.3125 49.4375 121.3125 C 49.402344 121.386719 49.417969 121.445312 49.382812 121.519531 C 49.382812 121.519531 49.34375 121.59375 49.34375 121.59375 C 49.308594 121.667969 49.324219 121.722656 49.289062 121.796875 C 49.289062 121.796875 49.25 121.871094 49.25 121.871094 C 49.214844 121.949219 49.230469 122.003906 49.195312 122.078125 C 49.195312 122.078125 49.15625 122.152344 49.15625 122.152344 C 49.117188 122.226562 49.136719 122.28125 49.101562 122.355469 C 49.101562 122.355469 49.0625 122.433594 49.0625 122.433594 C 49.023438 122.507812 49.042969 122.5625 49.003906 122.636719 C 49.003906 122.636719 48.96875 122.710938 48.96875 122.710938 C 48.929688 122.785156 48.949219 122.839844 48.910156 122.917969 C 48.910156 122.917969 48.875 122.992188 48.875 122.992188 C 48.835938 123.066406 48.855469 123.121094 48.816406 123.195312 C 48.816406 123.195312 48.78125 123.269531 48.78125 123.269531 C 48.742188 123.34375 48.761719 123.402344 48.722656 123.476562 C 48.722656 123.476562 48.6875 123.550781 48.6875 123.550781 C 48.648438 123.625 48.667969 123.679688 48.628906 123.753906 C 48.628906 123.753906 48.589844 123.828125 48.589844 123.828125 C 48.554688 123.902344 48.574219 123.960938 48.535156 124.035156 C 48.535156 124.035156 48.496094 124.109375 48.496094 124.109375 C 48.460938 124.183594 48.480469 124.238281 48.441406 124.3125 C 48.441406 124.3125 48.402344 124.386719 48.402344 124.386719 C 48.367188 124.460938 48.382812 124.519531 48.347656 124.59375 C 48.347656 124.59375 48.308594 124.667969 48.308594 124.667969 C 48.273438 124.742188 48.289062 124.796875 48.253906 124.871094 C 48.253906 124.871094 48.214844 124.945312 48.214844 124.945312 C 48.179688 125.019531 48.195312 125.078125 48.160156 125.152344 C 48.160156 125.152344 48.121094 125.226562 48.121094 125.226562 C 48.082031 125.300781 48.101562 125.355469 48.066406 125.429688 C 48.066406 125.429688 48.027344 125.503906 48.027344 125.503906 C 47.988281 125.578125 48.007812 125.636719 47.96875 125.710938 C 47.96875 125.710938 47.933594 125.785156 47.933594 125.785156 C 47.894531 125.859375 47.914062 125.914062 47.875 125.988281 C 47.875 125.988281 47.839844 126.0625 47.839844 126.0625 C 47.800781 126.136719 47.820312 126.195312 47.78125 126.269531 C 47.78125 126.269531 47.746094 126.34375 47.746094 126.34375 C 47.707031 126.417969 47.726562 126.472656 47.6875 126.546875 C 47.6875 126.546875 47.652344 126.621094 47.652344 126.621094 C 47.613281 126.699219 47.632812 126.753906 47.59375 126.828125 C 47.59375 126.828125 47.554688 126.902344 47.554688 126.902344 C 47.519531 126.976562 47.539062 127.03125 47.5 127.105469 C 47.5 127.105469 47.460938 127.179688 47.460938 127.179688 C 47.425781 127.257812 47.441406 127.3125 47.40625 127.386719 C 47.40625 127.386719 47.367188 127.460938 47.367188 127.460938 C 47.332031 127.535156 47.347656 127.589844 47.3125 127.664062 C 47.3125 127.664062 47.273438 127.742188 47.273438 127.742188 C 47.238281 127.816406 47.253906 127.871094 47.21875 127.945312 C 47.21875 127.945312 47.179688 128.019531 47.179688 128.019531 C 47.140625 128.09375 47.160156 128.148438 47.125 128.226562 C 47.125 128.226562 47.085938 128.300781 47.085938 128.300781 C 47.046875 128.375 47.066406 128.429688 47.03125 128.503906 C 47.03125 128.503906 46.992188 128.578125 46.992188 128.578125 C 46.953125 128.652344 46.972656 128.710938 46.933594 128.785156 C 46.933594 128.785156 46.898438 128.859375 46.898438 128.859375 C 46.859375 128.933594 46.878906 128.988281 46.839844 129.0625 C 46.839844 129.0625 46.804688 129.136719 46.804688 129.136719 C 46.765625 129.210938 46.785156 129.269531 46.746094 129.34375 C 46.746094 129.34375 46.710938 129.417969 46.710938 129.417969 C 46.671875 129.492188 46.691406 129.546875 46.652344 129.621094 C 46.652344 129.621094 46.617188 129.695312 46.617188 129.695312 C 46.578125 129.769531 46.597656 129.828125 46.558594 129.902344 C 46.558594 129.902344 46.519531 129.976562 46.519531 129.976562 C 46.484375 130.050781 46.503906 130.105469 46.464844 130.179688 C 46.464844 130.179688 46.425781 130.253906 46.425781 130.253906 C 46.390625 130.328125 46.40625 130.386719 46.371094 130.460938 C 46.371094 130.460938 46.332031 130.535156 46.332031 130.535156 C 46.296875 130.609375 46.3125 130.664062 46.277344 130.738281 C 46.277344 130.738281 46.238281 130.8125 46.238281 130.8125 C 46.203125 130.886719 46.21875 130.945312 46.183594 131.019531 C 46.183594 131.019531 46.144531 131.09375 46.144531 131.09375 C 46.105469 131.167969 46.125 131.222656 46.089844 131.296875 C 46.089844 131.296875 46.050781 131.371094 46.050781 131.371094 C 46.011719 131.445312 46.03125 131.503906 45.996094 131.578125 C 45.996094 131.578125 45.957031 131.652344 45.957031 131.652344 C 45.917969 131.726562 45.9375 131.78125 45.898438 131.855469 C 45.898438 131.855469 45.863281 131.929688 45.863281 131.929688 C 45.824219 132.007812 45.84375 132.0625 45.804688 132.136719 C 45.804688 132.136719 45.769531 132.210938 45.769531 132.210938 C 45.730469 132.285156 45.75 132.339844 45.710938 132.414062 C 45.710938 132.414062 45.675781 132.492188 45.675781 132.492188 C 45.636719 132.566406 45.65625 132.621094 45.617188 132.695312 C 45.617188 132.695312 45.582031 132.769531 45.582031 132.769531 C 45.542969 132.84375 45.5625 132.898438 45.523438 132.976562 C 45.523438 132.976562 45.484375 133.050781 45.484375 133.050781 C 45.449219 133.125 45.46875 133.179688 45.429688 133.253906 C 45.429688 133.253906 45.390625 133.328125 45.390625 133.328125 C 45.355469 133.402344 45.371094 133.460938 45.335938 133.535156 C 45.335938 133.535156 45.296875 133.609375 45.296875 133.609375 C 45.261719 133.683594 45.277344 133.738281 45.242188 133.8125 C 45.242188 133.8125 45.203125 133.886719 45.203125 133.886719 C 45.167969 133.960938 45.183594 134.019531 45.148438 134.09375 C 45.148438 134.09375 45.109375 134.167969 45.109375 134.167969 C 45.070312 134.242188 45.089844 134.296875 45.054688 134.371094 C 45.054688 134.371094 45.015625 134.445312 45.015625 134.445312 C 44.976562 134.519531 44.996094 134.578125 44.957031 134.652344 C 44.957031 134.652344 44.921875 134.726562 44.921875 134.726562 C 44.882812 134.800781 44.902344 134.855469 44.863281 134.929688 C 44.863281 134.929688 44.828125 135.003906 44.828125 135.003906 C 44.789062 135.078125 44.808594 135.136719 44.769531 135.210938 C 44.769531 135.210938 44.734375 135.285156 44.734375 135.285156 C 44.695312 135.359375 44.714844 135.414062 44.675781 135.488281 C 44.675781 135.488281 44.640625 135.5625 44.640625 135.5625 C 44.601562 135.636719 44.621094 135.695312 44.582031 135.769531 C 44.582031 135.769531 44.546875 135.84375 44.546875 135.84375 C 44.507812 135.917969 44.527344 135.972656 44.488281 136.046875 C 44.488281 136.046875 44.449219 136.121094 44.449219 136.121094 C 44.414062 136.195312 44.433594 136.253906 44.394531 136.328125 C 44.394531 136.328125 44.355469 136.402344 44.355469 136.402344 C 44.320312 136.476562 44.335938 136.53125 44.300781 136.605469 C 44.300781 136.605469 44.261719 136.679688 44.261719 136.679688 C 44.226562 136.757812 44.242188 136.8125 44.207031 136.886719 C 44.207031 136.886719 44.167969 136.960938 44.167969 136.960938 C 44.132812 137.035156 44.148438 137.089844 44.113281 137.164062 C 44.113281 137.164062 44.074219 137.242188 44.074219 137.242188 C 44.035156 137.316406 44.054688 137.371094 44.019531 137.445312 C 44.019531 137.445312 43.980469 137.519531 43.980469 137.519531 C 43.941406 137.59375 43.960938 137.648438 43.921875 137.726562 C 43.921875 137.726562 43.886719 137.800781 43.886719 137.800781 C 43.847656 137.875 43.867188 137.929688 43.828125 138.003906 C 43.828125 138.003906 43.792969 138.078125 43.792969 138.078125 C 43.753906 138.152344 43.773438 138.210938 43.734375 138.285156 C 43.734375 138.285156 43.699219 138.359375 43.699219 138.359375 C 43.660156 138.433594 43.679688 138.488281 43.640625 138.5625 C 43.640625 138.5625 43.605469 138.636719 43.605469 138.636719 C 43.566406 138.710938 43.585938 138.769531 43.546875 138.84375 C 43.546875 138.84375 43.511719 138.917969 43.511719 138.917969 C 43.472656 138.992188 43.492188 139.046875 43.453125 139.121094 C 43.453125 139.121094 43.414062 139.195312 43.414062 139.195312 C 43.378906 139.269531 43.398438 139.328125 43.359375 139.402344 C 43.359375 139.402344 43.320312 139.476562 43.320312 139.476562 C 43.285156 139.550781 43.300781 139.605469 43.265625 139.679688 C 43.265625 139.679688 43.226562 139.753906 43.226562 139.753906 C 43.191406 139.828125 43.207031 139.886719 43.171875 139.960938 C 43.171875 139.960938 43.132812 140.035156 43.132812 140.035156 C 43.097656 140.109375 43.113281 140.164062 43.078125 140.238281 C 43.078125 140.238281 43.039062 140.3125 43.039062 140.3125 C 43 140.386719 43.019531 140.445312 42.984375 140.519531 C 42.984375 140.519531 42.945312 140.59375 42.945312 140.59375 C 42.90625 140.667969 42.925781 140.722656 42.886719 140.796875 C 42.886719 140.796875 42.851562 140.871094 42.851562 140.871094 C 42.8125 140.945312 42.832031 141.003906 42.792969 141.078125 C 42.792969 141.078125 42.757812 141.152344 42.757812 141.152344 C 42.71875 141.226562 42.738281 141.28125 42.699219 141.355469 C 42.699219 141.355469 42.664062 141.429688 42.664062 141.429688 C 42.625 141.507812 42.644531 141.5625 42.605469 141.636719 C 42.605469 141.636719 42.570312 141.710938 42.570312 141.710938 C 42.53125 141.785156 42.550781 141.839844 42.511719 141.914062 C 42.511719 141.914062 42.472656 141.992188 42.472656 141.992188 C 42.4375 142.066406 42.457031 142.121094 42.417969 142.195312 C 42.417969 142.195312 42.378906 142.269531 42.378906 142.269531 C 42.34375 142.34375 42.363281 142.398438 42.324219 142.472656 C 42.324219 142.472656 42.285156 142.550781 42.285156 142.550781 C 42.25 142.625 42.265625 142.679688 42.230469 142.753906 C 42.230469 142.753906 42.191406 142.828125 42.191406 142.828125 C 42.15625 142.902344 42.171875 142.957031 42.136719 143.035156 C 42.136719 143.035156 42.097656 143.109375 42.097656 143.109375 C 42.0625 143.183594 42.078125 143.238281 42.042969 143.3125 C 42.042969 143.3125 42.003906 143.386719 42.003906 143.386719 C 41.964844 143.460938 41.984375 143.519531 41.949219 143.59375 C 41.949219 143.59375 41.910156 143.667969 41.910156 143.667969 C 41.871094 143.742188 41.890625 143.796875 41.851562 143.871094 C 41.851562 143.871094 41.816406 143.945312 41.816406 143.945312 C 41.777344 144.019531 41.796875 144.078125 41.757812 144.152344 C 41.757812 144.152344 41.722656 144.226562 41.722656 144.226562 C 41.683594 144.300781 41.703125 144.355469 41.664062 144.429688 C 41.664062 144.429688 41.628906 144.503906 41.628906 144.503906 C 41.589844 144.578125 41.609375 144.636719 41.570312 144.710938 C 41.570312 144.710938 41.535156 144.785156 41.535156 144.785156 C 41.496094 144.859375 41.515625 144.914062 41.476562 144.988281 C 41.476562 144.988281 41.4375 145.0625 41.4375 145.0625 C 41.402344 145.136719 41.421875 145.195312 41.382812 145.269531 C 41.382812 145.269531 41.34375 145.34375 41.34375 145.34375 C 41.308594 145.417969 41.328125 145.472656 41.289062 145.546875 C 41.289062 145.546875 41.25 145.621094 41.25 145.621094 C 41.214844 145.695312 41.230469 145.753906 41.195312 145.828125 C 41.195312 145.828125 41.15625 145.902344 41.15625 145.902344 C 41.121094 145.976562 41.136719 146.03125 41.101562 146.105469 C 41.101562 146.105469 41.0625 146.179688 41.0625 146.179688 C 41.027344 146.253906 41.042969 146.3125 41.007812 146.386719 C 41.007812 146.386719 40.96875 146.460938 40.96875 146.460938 C 40.929688 146.535156 40.949219 146.589844 40.914062 146.664062 C 40.914062 146.664062 40.875 146.738281 40.875 146.738281 C 40.835938 146.816406 40.855469 146.871094 40.816406 146.945312 C 40.816406 146.945312 40.78125 147.019531 40.78125 147.019531 C 40.742188 147.09375 40.761719 147.148438 40.722656 147.222656 C 40.722656 147.222656 40.6875 147.300781 40.6875 147.300781 C 40.648438 147.375 40.667969 147.429688 40.628906 147.503906 C 40.628906 147.503906 40.59375 147.578125 40.59375 147.578125 C 34.917969 173.667969 37.34375 208.132812 49.683594 245.539062 C 62.078125 282.367188 80.28125 311.199219 102.304688 328.832031 C 127.097656 348.65625 156.488281 353.800781 187.230469 343.660156 C 218.03125 333.503906 238.832031 312.421875 247.410156 282.707031 C 247.445312 282.632812 247.484375 282.558594 247.449219 282.445312 C 247.484375 282.371094 247.523438 282.296875 247.484375 282.1875 C 247.523438 282.109375 247.558594 282.035156 247.523438 281.925781 C 247.5625 281.851562 247.597656 281.777344 247.5625 281.664062 C 247.597656 281.589844 247.636719 281.515625 247.601562 281.402344 C 247.636719 281.328125 247.675781 281.253906 247.636719 281.140625 C 247.675781 281.066406 247.714844 280.992188 247.675781 280.882812 C 247.714844 280.804688 247.75 280.730469 247.714844 280.621094 C 247.75 280.546875 247.789062 280.472656 247.753906 280.359375 C 247.789062 280.285156 247.828125 280.210938 247.789062 280.097656 C 247.828125 280.023438 247.867188 279.949219 247.828125 279.835938 C 247.867188 279.761719 247.902344 279.6875 247.867188 279.578125 C 247.902344 279.5 247.941406 279.425781 247.90625 279.316406 C 247.941406 279.242188 247.980469 279.167969 247.941406 279.054688 C 247.980469 278.980469 248.019531 278.90625 247.980469 278.792969 C 248.019531 278.71875 248.054688 278.644531 248.019531 278.53125 C 248.054688 278.457031 248.09375 278.382812 248.058594 278.273438 C 248.09375 278.195312 248.132812 278.121094 248.09375 278.011719 C 248.132812 277.9375 248.171875 277.863281 248.132812 277.75 C 248.171875 277.675781 248.207031 277.601562 248.171875 277.488281 C 248.210938 277.414062 248.246094 277.339844 248.210938 277.226562 C 248.246094 277.152344 248.285156 277.078125 248.246094 276.96875 C 248.285156 276.890625 248.324219 276.816406 248.285156 276.707031 C 248.324219 276.632812 248.359375 276.558594 248.324219 276.445312 C 248.363281 276.371094 248.398438 276.296875 248.363281 276.183594 C 248.398438 276.109375 248.4375 276.035156 248.398438 275.921875 C 248.4375 275.847656 248.476562 275.773438 248.4375 275.664062 C 248.476562 275.585938 248.511719 275.511719 248.476562 275.402344 C 248.515625 275.328125 248.550781 275.253906 248.515625 275.140625 C 248.550781 275.066406 248.589844 274.992188 248.554688 274.878906 C 248.589844 274.804688 248.628906 274.730469 248.589844 274.617188 C 248.628906 274.542969 248.664062 274.46875 248.628906 274.359375 C 248.667969 274.28125 248.703125 274.207031 248.667969 274.097656 C 248.703125 274.023438 248.742188 273.949219 248.707031 273.835938 C 248.742188 273.761719 248.78125 273.6875 248.742188 273.574219 C 248.78125 273.5 248.820312 273.425781 248.78125 273.3125 C 248.820312 273.238281 248.855469 273.164062 248.820312 273.054688 C 248.855469 272.976562 248.894531 272.902344 248.859375 272.792969 C 248.894531 272.71875 248.933594 272.644531 248.894531 272.53125 C 248.933594 272.457031 248.972656 272.382812 248.933594 272.269531 C 248.972656 272.195312 249.007812 272.121094 248.972656 272.007812 C 249.007812 271.933594 249.046875 271.859375 249.011719 271.75 C 249.046875 271.675781 249.085938 271.597656 249.046875 271.488281 C 249.085938 271.414062 249.125 271.339844 249.085938 271.226562 C 249.125 271.152344 249.160156 271.078125 249.125 270.964844 C 249.160156 270.890625 249.199219 270.816406 249.164062 270.703125 C 249.199219 270.628906 249.238281 270.554688 249.199219 270.445312 C 249.238281 270.371094 249.277344 270.292969 249.238281 270.183594 C 249.277344 270.109375 249.3125 270.035156 249.277344 269.921875 C 249.316406 269.847656 249.351562 269.773438 249.316406 269.660156 C 249.351562 269.585938 249.390625 269.511719 249.351562 269.398438 C 249.390625 269.324219 249.429688 269.25 249.390625 269.140625 C 249.429688 269.066406 249.464844 268.988281 249.429688 268.878906 C 249.46875 268.804688 249.503906 268.730469 249.46875 268.617188 C 249.503906 268.542969 249.542969 268.46875 249.503906 268.355469 C 249.542969 268.28125 249.582031 268.207031 249.542969 268.09375 C 249.582031 268.019531 249.617188 267.945312 249.582031 267.835938 C 249.621094 267.761719 249.65625 267.683594 249.621094 267.574219 C 249.65625 267.5 249.695312 267.425781 249.660156 267.3125 C 249.695312 267.238281 249.734375 267.164062 249.695312 267.050781 C 249.734375 266.976562 249.769531 266.902344 249.734375 266.789062 C 249.773438 266.714844 249.808594 266.640625 249.773438 266.53125 C 249.808594 266.457031 249.847656 266.378906 249.8125 266.269531 C 249.847656 266.195312 249.886719 266.121094 249.847656 266.007812 C 249.886719 265.933594 249.925781 265.859375 249.886719 265.746094 C 249.925781 265.671875 249.960938 265.597656 249.925781 265.484375 C 249.960938 265.410156 250 265.335938 249.964844 265.226562 C 250 265.152344 250.039062 265.074219 250 264.964844 C 250.039062 264.890625 250.078125 264.816406 250.039062 264.703125 C 250.078125 264.628906 250.113281 264.554688 250.078125 264.441406 C 250.113281 264.367188 250.152344 264.292969 250.117188 264.179688 C 250.152344 264.105469 250.191406 264.03125 250.152344 263.921875 C 250.191406 263.847656 250.230469 263.769531 250.191406 263.660156 C 250.230469 263.585938 250.265625 263.511719 250.230469 263.398438 C 250.265625 263.324219 250.304688 263.25 250.269531 263.136719 C 250.304688 263.0625 250.34375 262.988281 250.304688 262.875 C 250.34375 262.800781 250.382812 262.726562 250.34375 262.617188 C 250.382812 262.542969 250.417969 262.464844 250.382812 262.355469 C 250.421875 262.28125 250.457031 262.207031 250.421875 262.09375 C 250.457031 262.019531 250.496094 261.945312 250.457031 261.832031 C 250.496094 261.757812 250.535156 261.683594 250.496094 261.570312 C 250.535156 261.496094 250.570312 261.421875 250.535156 261.3125 C 250.574219 261.238281 250.609375 261.160156 250.574219 261.050781 C 250.609375 260.976562 250.648438 260.902344 250.609375 260.789062 C 250.648438 260.714844 250.6875 260.640625 250.648438 260.527344 C 250.6875 260.453125 250.722656 260.378906 250.6875 260.265625 C 250.726562 260.191406 250.761719 260.117188 250.726562 260.007812 C 250.761719 259.933594 250.800781 259.855469 250.765625 259.746094 C 250.800781 259.671875 250.839844 259.597656 250.800781 259.484375 C 250.839844 259.410156 250.875 259.335938 250.839844 259.222656 C 250.878906 259.148438 250.914062 259.074219 250.878906 258.960938 C 250.914062 258.886719 250.953125 258.8125 250.917969 258.703125 C 250.953125 258.628906 250.992188 258.550781 250.953125 258.441406 C 250.992188 258.367188 251.03125 258.292969 250.992188 258.179688 C 251.03125 258.105469 251.066406 258.03125 251.03125 257.917969 C 262.25 230.1875 259.730469 195.070312 246.910156 156.207031 Z M 118.933594 134.15625 C 144.523438 125.714844 164.085938 166.949219 175.980469 203.011719 C 182.390625 222.441406 187.933594 244.332031 187.859375 261.804688 C 185.503906 264.632812 182.417969 266.765625 178.554688 268.039062 C 158.117188 274.78125 137.550781 250.457031 120.722656 199.445312 C 112.890625 175.699219 109.148438 155.886719 109.402344 140.839844 C 111.964844 137.695312 115.125 135.410156 118.933594 134.15625 Z M 118.933594 134.15625 " fill-opacity="1" fill-rule="nonzero"/></g></g></g><g clip-path="url(#091b1c845d)"><g clip-path="url(#ba86a43ae0)"><g clip-path="url(#eaafebd82b)"><path fill="#ffffff" d="M 243.328125 157.386719 C 268.117188 232.539062 254.921875 294.757812 192.933594 315.207031 C 129.824219 336.023438 83.335938 288.457031 60.152344 219.484375 C 36.730469 148.480469 48.066406 83.082031 111.175781 62.265625 C 176.136719 40.839844 221.273438 90.527344 243.328125 157.386719 Z M 117.214844 200.664062 C 135.683594 256.660156 158.027344 278.847656 179.8125 271.660156 C 201.988281 264.347656 204.808594 232.621094 186.46875 177.011719 C 168.625 122.917969 147.554688 98.203125 124.652344 105.757812 C 103.972656 112.515625 98.371094 143.546875 117.214844 200.664062 Z M 117.214844 200.664062 " fill-opacity="1" fill-rule="nonzero"/></g></g></g><g clip-path="url(#833c6d72b9)"><g clip-path="url(#1b636278e7)"><g clip-path="url(#ee1057770c)"><path fill="#ff5757" d="M 90.664062 86.292969 C 91.5 87.507812 91.234375 89.148438 90.019531 89.984375 C 89.925781 90.078125 81.140625 96.390625 73.679688 109.53125 C 66.796875 121.609375 59.722656 142.136719 64.964844 171.207031 C 65.203125 172.492188 64.433594 173.738281 63.203125 174.144531 C 63.089844 174.183594 62.976562 174.21875 62.867188 174.257812 C 61.46875 174.53125 60.089844 173.558594 59.796875 172.101562 C 54.296875 141.320312 61.882812 119.507812 69.25 106.644531 C 77.273438 92.574219 86.582031 85.964844 86.976562 85.648438 C 88.1875 84.8125 89.828125 85.078125 90.664062 86.292969 Z M 240.300781 195.269531 C 238.878906 195.675781 238.039062 197.070312 238.441406 198.488281 C 246.109375 227.003906 240.824219 248.058594 234.984375 260.664062 C 228.695312 274.351562 220.523438 281.394531 220.375 281.503906 C 219.253906 282.433594 219.117188 284.09375 220.046875 285.214844 C 220.753906 286.035156 221.90625 286.339844 222.914062 286.003906 C 223.25 285.894531 223.511719 285.746094 223.8125 285.523438 C 224.203125 285.207031 232.878906 277.8125 239.695312 263.085938 C 245.964844 249.71875 251.683594 227.339844 243.59375 197.164062 C 243.1875 195.746094 241.734375 194.917969 240.300781 195.269531 Z M 240.300781 195.269531 " fill-opacity="1" fill-rule="nonzero"/></g></g></g><g clip-path="url(#50d912476c)"><g clip-path="url(#080f5c0073)"><g clip-path="url(#2471989882)"><g clip-path="url(#ce63a10e5a)"><path fill="#ffffff" d="M 237.40625 75.335938 C 236.214844 79.660156 233.648438 82.933594 229.710938 85.15625 C 225.796875 87.363281 221.675781 87.863281 217.34375 86.65625 C 213.011719 85.453125 209.742188 82.890625 207.535156 78.980469 C 205.328125 75.070312 204.828125 70.945312 206.03125 66.613281 C 207.238281 62.28125 209.796875 59.011719 213.710938 56.804688 C 217.621094 54.597656 221.742188 54.097656 226.074219 55.300781 C 230.40625 56.507812 233.675781 59.070312 235.882812 62.980469 C 238.09375 66.890625 238.601562 71.011719 237.40625 75.335938 Z M 244.539062 39.054688 L 250.308594 35.796875 L 251.535156 109.867188 L 245.636719 113.195312 Z M 228.414062 72.847656 C 228.929688 71 228.714844 69.238281 227.769531 67.558594 C 226.824219 65.882812 225.425781 64.789062 223.578125 64.273438 C 221.730469 63.757812 219.964844 63.976562 218.289062 64.921875 C 216.613281 65.867188 215.515625 67.265625 215.003906 69.113281 C 214.488281 70.960938 214.707031 72.722656 215.652344 74.398438 C 216.597656 76.078125 217.996094 77.171875 219.84375 77.6875 C 221.691406 78.203125 223.453125 77.984375 225.128906 77.039062 C 226.804688 76.09375 227.902344 74.695312 228.414062 72.847656 Z M 290.082031 82.183594 C 288.875 86.515625 286.316406 89.785156 282.40625 91.992188 C 278.492188 94.199219 274.371094 94.703125 270.039062 93.496094 C 265.707031 92.289062 262.4375 89.730469 260.230469 85.816406 C 258.007812 81.878906 257.503906 77.75 258.714844 73.433594 C 259.929688 69.113281 262.492188 65.851562 266.40625 63.640625 C 270.316406 61.433594 274.4375 60.933594 278.769531 62.140625 C 283.101562 63.34375 286.371094 65.90625 288.582031 69.816406 C 290.789062 73.730469 291.289062 77.851562 290.082031 82.183594 Z M 276.273438 71.109375 C 274.425781 70.597656 272.660156 70.8125 270.984375 71.757812 C 269.308594 72.703125 268.214844 74.101562 267.699219 75.949219 C 267.183594 77.796875 267.398438 79.558594 268.347656 81.238281 C 269.292969 82.914062 270.6875 84.007812 272.539062 84.523438 C 274.386719 85.039062 276.148438 84.820312 277.824219 83.875 C 279.5 82.929688 280.597656 81.53125 281.109375 79.683594 C 281.625 77.835938 281.410156 76.074219 280.464844 74.398438 C 279.515625 72.71875 278.121094 71.625 276.273438 71.109375 Z M 276.273438 71.109375 " fill-opacity="1" fill-rule="nonzero"/></g></g></g></g></svg>